<svg width="57" height="25" viewBox="0 0 57 25" fill="none" xmlns="http://www.w3.org/2000/svg">
<path d="M0.351562 1.24141C0.351562 1.57141 0.564479 1.84141 0.807812 1.84141C1.17281 1.84141 1.26406 2.23141 1.26406 3.64141V5.44141H2.17656H3.08906V3.64141C3.08906 2.23141 3.18031 1.84141 3.54531 1.84141C3.78865 1.84141 4.00156 1.57141 4.00156 1.24141C4.00156 0.701406 3.78865 0.641406 2.17656 0.641406C0.564479 0.641406 0.351562 0.701406 0.351562 1.24141Z" fill="#4D4D4F"/>
<path d="M4.30469 3.04141C4.30469 5.41141 4.30469 5.44141 5.0651 5.44141C5.70385 5.44141 5.82552 5.29141 5.82552 4.54141C5.82552 3.79141 5.94719 3.64141 6.58594 3.64141C7.22469 3.64141 7.34635 3.79141 7.34635 4.54141C7.34635 5.29141 7.46802 5.44141 8.10677 5.44141C8.86719 5.44141 8.86719 5.41141 8.86719 3.04141C8.86719 0.671406 8.86719 0.641406 8.10677 0.641406C7.46802 0.641406 7.34635 0.791406 7.34635 1.54141C7.34635 2.29141 7.22469 2.44141 6.58594 2.44141C5.94719 2.44141 5.82552 2.29141 5.82552 1.54141C5.82552 0.791406 5.70385 0.641406 5.0651 0.641406C4.30469 0.641406 4.30469 0.671406 4.30469 3.04141Z" fill="#4D4D4F"/>
<path d="M9.78125 3.04141V5.44141H11.3021C12.61 5.44141 12.8229 5.35141 12.8229 4.84141C12.8229 4.36141 12.61 4.24141 11.8496 4.21141C10.9067 4.15141 10.9067 4.15141 11.6975 4.03141C12.3363 3.94141 12.5188 3.73141 12.5188 3.16141C12.5188 2.59141 12.3667 2.44141 11.7583 2.44141C11.3325 2.44141 10.9979 2.29141 10.9979 2.14141C10.9979 1.96141 11.4238 1.84141 11.9104 1.84141C12.61 1.84141 12.8229 1.72141 12.8229 1.24141C12.8229 0.731406 12.61 0.641406 11.3021 0.641406H9.78125V3.04141Z" fill="#4D4D4F"/>
<path d="M11.8492 7.54137C8.41209 9.34137 8.16876 14.5014 11.4538 16.3914C13.2788 17.4714 16.0163 17.4414 17.6892 16.3614C19.4229 15.2214 19.9096 14.2914 19.94 12.1614C19.9704 10.5114 19.8488 10.1514 19.0275 9.13137C18.5104 8.50137 17.6283 7.75137 17.0504 7.48137C15.6513 6.79137 13.2483 6.82137 11.8492 7.54137Z" fill="#4D4D4F"/>
<path d="M49.0467 7.5716C47.5259 8.4716 47.2825 8.8016 46.7959 10.4516C46.4309 11.6216 46.4004 12.3116 46.6134 13.2716C47.2521 16.0016 48.7121 17.1416 51.6929 17.1416C53.3354 17.1416 53.8221 17.0216 54.7954 16.3016C56.1338 15.3716 56.4988 14.7716 56.7725 12.8216L56.9854 11.4416H54.3696H51.7538V12.4916C51.7538 13.4516 51.8146 13.5416 52.6663 13.5416C53.7004 13.5416 53.6396 14.1416 52.5446 14.7416C51.0542 15.5216 49.3204 14.1716 49.3204 12.2216C49.3509 10.9016 49.7159 10.2416 50.75 9.7016C51.7538 9.1616 52.3013 9.2516 53.1834 10.1216C53.8221 10.7516 54.0959 10.8416 54.6129 10.6016C54.9779 10.4216 55.495 10.2116 55.7992 10.1216C56.0729 10.0316 56.3163 9.8216 56.3163 9.6716C56.3163 9.2216 54.7042 7.7216 53.7917 7.3016C52.4534 6.7316 50.2329 6.8516 49.0467 7.5716Z" fill="#4D4D4F"/>
<path d="M0.65625 12.1616V17.1416H3.08958C6.92208 17.1416 8.26042 16.3316 8.26042 14.0216C8.26042 13.2716 8.0475 12.7616 7.46958 12.2516C6.9525 11.7716 6.80042 11.4416 7.01333 11.3216C7.19583 11.2016 7.34792 10.5416 7.34792 9.8216C7.34792 7.8416 6.67875 7.4216 3.36333 7.3016L0.65625 7.1816V12.1616ZM4.61042 9.7916C5.06667 10.3316 4.7625 10.8416 3.97167 10.8416C3.54583 10.8416 3.39375 10.6316 3.39375 10.0916C3.39375 9.2516 4.0325 9.1016 4.61042 9.7916ZM4.945 13.2416C5.52292 13.5716 5.73583 14.2916 5.31 14.5316C5.15792 14.5916 4.70167 14.7416 4.24542 14.8616C3.42417 15.0416 3.39375 15.0116 3.39375 13.9916C3.39375 12.8816 3.81958 12.6716 4.945 13.2416Z" fill="#4D4D4F"/>
<path d="M21.3398 12.1616V17.1416H22.7086H24.0469L24.1382 15.4316L24.2294 13.6916L25.294 15.4316L26.3282 17.1416H27.9403C29.7957 17.1416 29.9173 16.9016 28.7311 15.4916C26.6628 13.1216 26.5715 12.9416 27.1494 12.9416C27.8186 12.9416 28.4269 11.9216 28.579 10.5716C28.6703 9.3716 28.579 9.0116 27.9403 8.2616C27.2103 7.4216 27.0582 7.3916 24.2598 7.3016L21.3398 7.1816V12.1616ZM25.4157 9.8216C25.6894 10.0616 25.9023 10.3916 25.9023 10.5116C25.9023 10.9016 25.1723 11.4416 24.6248 11.4416C24.199 11.4416 24.0773 11.2016 24.0773 10.3916C24.0773 9.2216 24.5944 9.0116 25.4157 9.8216Z" fill="#4D4D4F"/>
<path d="M30.4648 12.1916V17.1416H31.8336H33.2023V12.1916V7.2416H31.8336H30.4648V12.1916Z" fill="#4D4D4F"/>
<path d="M35.0273 12.1916V17.1416H36.3961H37.7648V14.3816V11.5916L38.4644 12.3416C38.8294 12.7616 39.529 13.6316 40.0461 14.2916C40.5328 14.9516 41.1715 15.7616 41.4757 16.0616C41.7798 16.3916 42.0232 16.7516 42.0232 16.9016C42.0232 17.0216 42.7228 17.1416 43.544 17.1416H45.0648V12.1916V7.2416H43.6961H42.3273V10.1516C42.3273 12.9716 42.2969 13.0616 41.8103 12.3416C41.5365 11.9216 40.9586 11.1716 40.5328 10.6616C40.1069 10.1516 39.2857 9.1616 38.7382 8.4716C37.7953 7.3616 37.5823 7.2416 36.3657 7.2416H35.0273V12.1916Z" fill="#4D4D4F"/>
<path d="M21.2769 19.121C19.604 19.991 19.2998 21.941 20.6382 23.261C21.2769 23.891 21.7028 24.041 22.524 23.981C23.4365 23.891 23.619 23.771 23.7103 23.111C23.8015 22.421 23.7103 22.331 23.0107 22.451C21.4898 22.751 20.6078 20.921 22.0982 20.561C22.524 20.471 23.0715 20.441 23.3148 20.561C23.6494 20.681 23.7711 20.501 23.7711 19.871C23.7711 18.611 22.7673 18.311 21.2769 19.121Z" fill="#4D4D4F"/>
<path d="M25.6294 19.061C24.8081 19.511 24.1085 20.621 24.0781 21.461C24.0781 21.791 24.4127 22.481 24.869 23.051C25.5077 23.891 25.8119 24.041 26.9069 24.041C28.7319 24.011 29.7052 23.141 29.7052 21.521C29.7052 20.231 29.3402 19.631 28.1235 19.001C27.2719 18.551 26.5419 18.551 25.6294 19.061ZM28.0627 20.921C28.9144 21.941 27.0285 23.081 26.0552 22.121C25.5077 21.581 25.4773 21.281 25.964 20.801C26.481 20.291 27.576 20.351 28.0627 20.921Z" fill="#4D4D4F"/>
<path d="M30.951 19.2111C30.7989 19.4211 30.1906 23.1111 30.1602 23.8011C30.1602 23.9511 30.4947 24.0411 30.9206 24.0411C31.5593 24.0411 31.681 23.8911 31.681 23.2011C31.681 21.9111 32.0764 21.7611 32.4718 22.9011C32.9585 24.3411 33.5972 24.2811 34.1752 22.7811L34.6922 21.4911V22.7511C34.7227 23.9811 34.7531 24.0411 35.6352 24.0411C36.6693 24.0411 36.6389 24.1311 36.2739 22.4511C36.0914 21.7611 35.8785 20.6811 35.7872 20.0511C35.6047 19.0311 35.5135 18.9111 34.7835 19.0011C34.236 19.0611 33.9318 19.3011 33.871 19.6911C33.6581 20.8011 33.2018 20.8911 32.8368 19.9011C32.5631 19.2111 32.2589 18.9411 31.7722 18.9411C31.4072 18.9411 31.0422 19.0611 30.951 19.2111Z" fill="#4D4D4F"/>
<path d="M37.1562 21.491C37.1562 24.011 37.1562 24.041 37.9167 24.041C38.4946 24.041 38.6771 23.891 38.6771 23.351C38.6771 22.841 38.9508 22.571 39.7417 22.271C40.715 21.941 40.8062 21.791 40.8062 20.741C40.8062 19.361 40.2587 18.941 38.4033 18.941H37.1562V21.491Z" fill="#4D4D4F"/>
<path d="M42.1764 19.751C42.0852 20.201 41.7202 21.101 41.3856 21.761C40.5947 23.411 40.6252 24.041 41.5681 24.041C42.0547 24.041 42.3285 23.861 42.3285 23.591C42.3285 23.291 42.6327 23.141 43.241 23.141C43.8493 23.141 44.1535 23.291 44.1535 23.591C44.1535 23.861 44.4272 24.041 44.9139 24.041C45.8568 24.041 45.9177 23.351 45.0964 21.551C44.7618 20.861 44.4272 19.991 44.3056 19.601C44.0014 18.581 42.4502 18.671 42.1764 19.751Z" fill="#4D4D4F"/>
<path d="M46.2812 21.491C46.2812 24.011 46.2812 24.041 47.0417 24.041C47.7413 24.041 47.8021 23.921 47.8021 22.751V21.491L48.7146 22.541C49.2013 23.111 49.6271 23.681 49.6271 23.801C49.6271 23.951 49.9617 24.041 50.3875 24.041C51.1479 24.041 51.1479 24.011 51.1479 21.491C51.1479 19.151 51.0871 18.941 50.5396 18.941C50.0225 18.941 49.9313 19.151 49.9313 20.141C49.9313 20.801 49.84 21.341 49.7183 21.341C49.5663 21.341 49.0796 20.801 48.6233 20.141C48.015 19.301 47.5283 18.941 47.0113 18.941C46.2812 18.941 46.2812 19.001 46.2812 21.491Z" fill="#4D4D4F"/>
<path d="M51.7539 19.361C51.7539 19.601 52.0885 20.201 52.5143 20.681C53.0618 21.311 53.2747 21.941 53.2747 22.811C53.2747 23.921 53.3356 24.041 54.0352 24.041C54.7347 24.041 54.7956 23.921 54.7956 22.751C54.7956 21.791 55.0389 21.161 55.7385 20.201L56.6814 18.941H55.8297C55.3735 18.941 54.7652 19.151 54.4914 19.391C54.0352 19.811 53.9439 19.811 53.5789 19.391C53.0922 18.821 51.7539 18.791 51.7539 19.361Z" fill="#4D4D4F"/>
</svg>
