<svg width="86" height="26" viewBox="0 0 86 26" fill="none" xmlns="http://www.w3.org/2000/svg">
<path d="M12.5995 0.315175C12.542 0.329554 12.2113 0.37269 11.8734 0.423015C11.5355 0.466151 11.2263 0.530855 11.1832 0.552423C11.1473 0.581181 11.025 0.746536 10.9244 0.92627C10.5937 1.49423 10.1551 2.2563 10.0832 2.36414C9.78847 2.84583 9.4362 3.4713 9.4362 3.51444C9.4362 3.55038 9.39306 3.62228 9.33555 3.6726C9.28522 3.73012 9.13424 3.96737 9.00484 4.20461C8.87543 4.43467 8.69569 4.76538 8.60223 4.93793L8.42969 5.24707L8.59504 5.20393C8.68131 5.17518 8.88262 5.09609 9.04078 5.0242C10.4283 4.39154 12.0891 4.24056 13.7714 4.58565C14.4112 4.71506 14.4112 4.71506 14.5047 4.56408C14.8354 4.03207 15.1877 3.42097 15.1877 3.37065C15.1877 3.3347 15.2308 3.26281 15.2883 3.20529C15.3458 3.15497 15.4896 2.91772 15.619 2.68047C15.7413 2.45041 15.9138 2.14127 16.0001 1.99029C16.3811 1.35763 16.5537 1.04849 16.5537 0.998163C16.5537 0.91908 15.655 0.631506 14.9361 0.487719C14.3321 0.3655 12.8439 0.250471 12.5995 0.315175Z" fill="#4D4D4F"/>
<path d="M20.2423 3.31333C20.1633 3.44274 20.0842 3.6009 20.0482 3.65842C20.0195 3.71593 19.926 3.88848 19.8397 4.03226C19.5306 4.5499 18.4594 6.39756 18.3659 6.57729C18.2725 6.75703 18.2868 6.78579 18.7973 7.31061C19.6384 8.1949 19.9044 8.56874 20.3574 9.46741C21.3064 11.3438 21.4501 13.8745 20.724 15.8084C20.3214 16.8868 19.6241 18.0227 18.8764 18.8279C18.2868 19.4678 17.1294 20.309 16.4104 20.6325C16.3098 20.6756 16.1516 20.7547 16.0509 20.805C15.7202 20.9776 14.8 21.2508 14.1098 21.3874C12.8517 21.639 11.0975 21.524 10.055 21.1214C9.86092 21.0423 9.68118 20.9848 9.64524 20.9848C9.60929 20.9848 9.30734 20.8553 8.96944 20.6972C8.31521 20.3808 7.62503 19.9495 7.20805 19.59C6.53944 19.0077 5.64796 18.0299 5.4826 17.6992C5.42509 17.5914 5.346 17.4476 5.29568 17.3901C5.2166 17.2894 4.98654 16.8365 4.7421 16.3117C4.5408 15.8875 4.3323 15.1758 4.21009 14.5287C4.07349 13.8098 4.05192 12.0628 4.16695 11.5811C4.26041 11.2216 4.19571 11.1497 3.92251 11.3295C3.64932 11.5092 3.48396 11.6098 3.14606 11.7896C2.9879 11.8758 2.84411 11.9693 2.82254 11.9909C2.80097 12.0124 2.60686 12.1275 2.39118 12.2425C2.1755 12.3503 1.85198 12.5301 1.67943 12.6379C1.11148 12.983 0.84547 13.134 0.543517 13.2993L0.234375 13.4647V14.1908C0.234375 15.2405 0.51476 16.5489 1.00364 17.8214C1.19775 18.3247 1.72976 19.4175 1.80884 19.475C1.8376 19.4966 1.94544 19.6619 2.05328 19.8488C2.74346 21.0495 4.22446 22.5233 5.69828 23.501C6.17278 23.8102 7.7113 24.601 8.01325 24.6873C8.10671 24.7088 8.34396 24.7879 8.53808 24.8598C11.0543 25.7729 14.2464 25.7657 16.7699 24.8526C17.7548 24.4932 18.747 24.033 19.2286 23.7095C19.3365 23.6376 19.5234 23.5082 19.6456 23.4291C19.7607 23.3501 19.8901 23.2853 19.9332 23.2853C19.9691 23.2853 20.0051 23.2566 20.0051 23.2278C20.0051 23.1919 20.192 23.0409 20.4149 22.8827C21.2848 22.2932 22.6939 20.7259 23.3985 19.5828C23.6717 19.1443 24.3906 17.7352 24.3906 17.6417C24.3906 17.6129 24.4409 17.4907 24.4984 17.3685C24.6566 17.0306 24.8507 16.3261 25.088 15.2333C25.2749 14.3418 25.2749 11.7464 25.0808 10.7759C24.8507 9.60401 24.4769 8.48966 24.0024 7.54786C23.5207 6.59886 23.4488 6.46945 23.3841 6.42632C23.3481 6.40475 23.2691 6.28253 23.2044 6.15312C23.0174 5.75052 21.8528 4.36297 21.1554 3.70874C20.7887 3.36366 20.4652 3.08327 20.4365 3.08327C20.4005 3.08327 20.3142 3.19111 20.2423 3.31333Z" fill="#4D4D4F"/>
<path d="M38.3018 8.03695C38.0646 8.0729 37.7555 8.14479 37.6189 8.2095C36.9431 8.50426 36.7561 8.60491 36.5476 8.79184C36.3895 8.93562 36.3679 8.91405 36.2601 8.48988L36.1738 8.18793H35.1745H34.168V13.0407V17.8936H35.4621H36.7561V14.9747C36.7561 12.1636 36.7633 12.0486 36.9071 11.7323C37.2306 11.0205 37.5829 10.7258 38.3522 10.5317C38.7332 10.4382 38.8986 10.431 39.1646 10.4885C39.7829 10.6251 40.056 10.8408 40.358 11.4231C40.5305 11.7467 40.5305 11.7538 40.5521 14.8165L40.5809 17.8936H41.8318H43.09L43.0684 14.6008C43.0396 11.4878 43.0324 11.2865 42.8887 10.8264C42.4573 9.46763 41.7959 8.69837 40.6528 8.23826C40.1495 8.02976 39.0639 7.94349 38.3018 8.03695Z" fill="#4D4D4F"/>
<path d="M52.1041 8.03646C51.0472 8.18024 49.8322 8.89199 49.1564 9.76909C48.9767 9.99915 48.8329 10.222 48.8329 10.2652C48.8329 10.3083 48.8042 10.3442 48.7754 10.3442C48.6963 10.3442 48.3009 11.286 48.1859 11.7462C47.9414 12.7167 48.0349 14.018 48.4159 15.0173C48.6963 15.7506 49.3577 16.6277 49.9832 17.095C50.1198 17.1957 50.2492 17.3035 50.2708 17.3251C50.2924 17.3467 50.4721 17.4545 50.6662 17.5552C51.6583 18.08 53.0099 18.2525 54.0452 17.9721C54.5844 17.8284 55.2962 17.5552 55.3752 17.4545C55.3968 17.4329 55.5406 17.3323 55.6988 17.2316C56.5399 16.6924 57.2013 15.765 57.5752 14.5931C57.7262 14.1258 57.7477 13.9102 57.7477 13.0331C57.7477 11.8971 57.6255 11.3723 57.1582 10.4736C56.8994 9.99196 55.8497 8.87042 55.4831 8.69069C55.368 8.63317 55.2171 8.55409 55.1596 8.50376C55.102 8.46063 54.8217 8.3456 54.5413 8.23776C53.9661 8.02927 52.859 7.943 52.1041 8.03646ZM53.6067 10.5599C54.1674 10.7397 54.6707 11.1854 54.987 11.7893C55.1739 12.1488 55.1883 12.2422 55.1955 13.0043C55.1955 13.752 55.1811 13.867 55.0014 14.2265C54.8217 14.6075 54.3184 15.233 54.189 15.233C54.153 15.233 54.074 15.2833 54.0021 15.348C53.7792 15.5493 53.0315 15.6715 52.5354 15.5853C52.025 15.4918 51.7949 15.384 51.4139 15.0389C50.7669 14.4565 50.429 13.3494 50.6303 12.4939C50.7956 11.7821 51.3133 10.9194 51.5649 10.9194C51.608 10.9194 51.6368 10.8906 51.6368 10.8547C51.6368 10.8044 52.0681 10.6102 52.4995 10.4665C52.7367 10.3874 53.1537 10.4233 53.6067 10.5599Z" fill="#4D4D4F"/>
<path d="M66.3708 8.0439C66.1048 8.07266 65.7956 8.15174 65.6734 8.21644C65.5512 8.28115 65.4074 8.33147 65.3571 8.33147C65.1414 8.33147 64.1565 9.01446 63.7395 9.4602C63.4879 9.71902 63.2866 9.95627 63.2866 9.98502C63.2866 10.021 63.2147 10.136 63.1212 10.251C62.9487 10.4667 62.7474 10.9125 62.5245 11.5667C62.3304 12.1275 62.3304 13.7738 62.5245 14.4424C63.0206 16.1751 64.1996 17.3972 65.9107 17.9364C66.5218 18.1306 67.974 18.1306 68.5348 17.9364C70.7779 17.1672 72.0791 15.3986 72.0935 13.1124C72.1007 10.7974 70.8354 8.94257 68.7648 8.22363C68.2113 8.02952 67.1185 7.95044 66.3708 8.0439ZM67.9668 10.5746C68.3335 10.6968 68.506 10.8118 68.8439 11.1497C69.0668 11.3798 69.2537 11.6098 69.2537 11.6601C69.2537 11.7033 69.3112 11.8399 69.3759 11.9621C69.455 12.1059 69.5054 12.415 69.5269 12.9111C69.5557 13.5581 69.5341 13.6947 69.3903 14.0614C69.0524 14.9025 68.4988 15.3986 67.708 15.564C67.0897 15.6934 66.4499 15.5712 65.9394 15.2261C65.5153 14.9313 65.3643 14.7372 65.127 14.1692C64.9689 13.7954 64.9401 13.6228 64.9401 13.0046C64.9401 12.3503 64.9617 12.2425 65.163 11.8183C65.4074 11.2935 66.0257 10.6824 66.3996 10.5889C66.529 10.5602 66.7087 10.5098 66.8093 10.4811C67.1472 10.3876 67.4995 10.4164 67.9668 10.5746Z" fill="#4D4D4F"/>
<path d="M81.2165 8.03695C80.9793 8.06571 80.6773 8.14479 80.5407 8.2095C80.4113 8.2742 80.2675 8.33172 80.2316 8.33172C80.1956 8.33172 79.9872 8.44675 79.7715 8.59053C79.563 8.72713 79.3617 8.82059 79.3185 8.79902C79.2826 8.77746 79.2107 8.62648 79.1676 8.46831L79.0813 8.18074L78.1035 8.20231L77.1258 8.22388L77.1042 13.0551L77.0898 17.8936H78.348H79.6061V15.0538C79.6061 12.2859 79.6133 12.2068 79.7715 11.8042C79.9872 11.2434 80.4616 10.7617 80.9721 10.5964C81.842 10.3088 82.6832 10.5245 83.1001 11.1428C83.4452 11.6604 83.4884 12.1349 83.4884 15.1904V17.8936H84.7106H85.9327V14.608C85.9327 11.4735 85.9256 11.2937 85.7818 10.812C85.6452 10.3519 85.3217 9.64018 85.2138 9.55391C85.1922 9.53234 85.0988 9.41012 85.0053 9.2879C84.7609 8.92843 84.0491 8.41799 83.5387 8.22388C83.0139 8.02976 81.9642 7.94349 81.2165 8.03695Z" fill="#4D4D4F"/>
</svg>
