<svg width="92" height="45" viewBox="0 0 92 45" fill="none" xmlns="http://www.w3.org/2000/svg">
<path d="M17.1367 20.5893V0H20.0697V8.57887H32.1925V0H35.1254V20.5893H32.1925V12.0104H20.0697V20.5893H17.1367Z" fill="#F7F7F7"/>
<path d="M36.3361 20.5893V0H39.2446V20.5893H36.3361Z" fill="#F7F7F7"/>
<path d="M22.4927 44.0664C21.8898 44.0664 21.3358 43.8948 20.8307 43.5517C20.3256 43.2085 19.9264 42.7414 19.6331 42.1504C19.3398 41.5595 19.1931 40.9113 19.1931 40.2059V27.3376C19.1931 26.6322 19.3398 25.984 19.6331 25.393C19.9264 24.8021 20.3256 24.335 20.8307 23.9918C21.3358 23.6487 21.8898 23.4771 22.4927 23.4771H33.4912C34.0941 23.4771 34.6399 23.6487 35.1287 23.9918C35.6339 24.335 36.0331 24.8021 36.3264 25.393C36.6359 25.984 36.7907 26.6322 36.7907 27.3376V40.2059C36.7907 40.9113 36.6359 41.5595 36.3264 42.1504C36.0331 42.7414 35.6339 43.2085 35.1287 43.5517C34.6399 43.8948 34.0941 44.0664 33.4912 44.0664H22.4927ZM22.566 40.6063H33.3934C33.5075 40.6063 33.6052 40.5586 33.6867 40.4633C33.7845 40.368 33.8334 40.244 33.8334 40.0915V27.452C33.8334 27.2995 33.7845 27.1755 33.6867 27.0802C33.6052 26.9849 33.5075 26.9372 33.3934 26.9372H22.566C22.4519 26.9372 22.346 26.9849 22.2483 27.0802C22.1668 27.1755 22.1261 27.2995 22.1261 27.452V40.0915C22.1261 40.244 22.1668 40.368 22.2483 40.4633C22.346 40.5586 22.4519 40.6063 22.566 40.6063Z" fill="#F7F7F7"/>
<path d="M37.9704 44.0664V23.4771H52.2685C52.8714 23.4771 53.4172 23.6487 53.906 23.9918C54.4112 24.335 54.8104 24.8021 55.1037 25.393C55.4132 25.984 55.568 26.6322 55.568 27.3376V40.2059C55.568 40.9113 55.4132 41.5595 55.1037 42.1504C54.8104 42.7414 54.4112 43.2085 53.906 43.5517C53.4172 43.8948 52.8714 44.0664 52.2685 44.0664H37.9704ZM41.3433 40.6063H52.1707C52.2848 40.6063 52.3825 40.5586 52.464 40.4633C52.5618 40.368 52.6107 40.244 52.6107 40.0915V27.452C52.6107 27.2995 52.5618 27.1755 52.464 27.0802C52.3825 26.9849 52.2848 26.9372 52.1707 26.9372H41.3433C41.2129 26.9372 41.0989 26.9849 41.0011 27.0802C40.9196 27.1755 40.8789 27.2995 40.8789 27.452V40.0915C40.8789 40.244 40.9196 40.368 41.0011 40.4633C41.0989 40.5586 41.2129 40.6063 41.3433 40.6063Z" fill="#F7F7F7"/>
<path fill-rule="evenodd" clip-rule="evenodd" d="M56.906 44.0378V40.5777H59.8634H73.0616V44.0378H56.906ZM59.8634 35.4589H73.0616V32.0274H59.8634H56.906V32.1114V35.4589H59.8634ZM73.0616 26.9087H59.8634H56.906V23.4485H73.0616V26.9087Z" fill="#F7F7F7"/>
<path fill-rule="evenodd" clip-rule="evenodd" d="M60.7975 20.5893V17.1291H63.7549H76.9531V20.5893H60.7975ZM76.9531 12.0104H63.7549H60.7975V8.57887H63.7549H76.9531V12.0104ZM63.7549 3.46014H76.9531V0H60.7975V3.46014H63.7549Z" fill="#F7F7F7"/>
<path fill-rule="evenodd" clip-rule="evenodd" d="M83.0337 36.8733L88.1803 44.0664H91.4798V43.2657L86.8659 36.8636L88.2536 36.8602C88.8565 36.8602 89.4024 36.6886 89.8912 36.3454C90.3963 36.0023 90.7955 35.5352 91.0888 34.9442C91.3984 34.3532 91.5532 33.7146 91.5532 33.0283V27.3662C91.5532 26.6608 91.3984 26.0222 91.0888 25.4502C90.7955 24.8593 90.3963 24.3922 89.8912 24.049C89.4024 23.6868 88.8565 23.5057 88.2536 23.5057H73.9555V26.9373H77.3284H88.1558C88.2699 26.9373 88.3677 26.9944 88.4492 27.1088C88.5469 27.2042 88.5958 27.3185 88.5958 27.452V32.8853C88.5958 33.0378 88.5469 33.1617 88.4492 33.257C88.3677 33.3523 88.2699 33.4 88.1558 33.4H77.3284H73.9555V44.0664H76.8885V36.8887L83.0337 36.8733Z" fill="#F7F7F7"/>
<path fill-rule="evenodd" clip-rule="evenodd" d="M49.7407 13.3963L54.8873 20.5895H58.1868V19.7888L53.5729 13.3867L54.9606 13.3832C55.5635 13.3832 56.1093 13.2116 56.5982 12.8685C57.1033 12.5253 57.5025 12.0583 57.7958 11.4673C58.1053 10.8763 58.2601 10.2376 58.2601 9.55132V3.88926C58.2601 3.18388 58.1053 2.54523 57.7958 1.97331C57.5025 1.38232 57.1033 0.915247 56.5982 0.572092C56.1093 0.209873 55.5635 0.0287622 54.9606 0.0287622H40.6625V3.46031H44.0354H54.8628C54.9769 3.46031 55.0747 3.51751 55.1561 3.63189C55.2539 3.72721 55.3028 3.84159 55.3028 3.97504V9.40833C55.3028 9.56085 55.2539 9.68476 55.1561 9.78008C55.0747 9.8754 54.9769 9.92306 54.8628 9.92306H44.0354H40.6625V20.5895H43.5955V13.4118L49.7407 13.3963Z" fill="#F7F7F7"/>
<path d="M3.44799 44.1967C2.84511 44.1967 2.29111 44.0251 1.78599 43.682C1.28088 43.3388 0.88167 42.8718 0.588376 42.2808C0.295082 41.6898 0.148438 41.0416 0.148438 40.3362V27.4679C0.148438 26.7625 0.295082 26.1144 0.588376 25.5234C0.88167 24.9324 1.28088 24.4653 1.78599 24.1222C2.29111 23.779 2.84511 23.6074 3.44799 23.6074H17.6972V27.0676H3.96125C3.70055 27.0676 3.48873 27.1629 3.32578 27.3535C3.16284 27.5251 3.08137 27.7634 3.08137 28.0684V39.7357C3.08137 40.0407 3.16284 40.2886 3.32578 40.4792C3.48873 40.6508 3.70055 40.7366 3.96125 40.7366H17.6972V44.1967H3.44799Z" fill="#14A800"/>
<path d="M3.44799 44.1967C2.84511 44.1967 2.29111 44.0251 1.78599 43.682C1.28088 43.3388 0.88167 42.8718 0.588376 42.2808C0.295082 41.6898 0.148438 41.0416 0.148438 40.3362V27.4679C0.148438 26.7625 0.295082 26.1144 0.588376 25.5234C0.88167 24.9324 1.28088 24.4653 1.78599 24.1222C2.29111 23.779 2.84511 23.6074 3.44799 23.6074H17.6972V27.0676H3.96125C3.70055 27.0676 3.48873 27.1629 3.32578 27.3535C3.16284 27.5251 3.08137 27.7634 3.08137 28.0684V39.7357C3.08137 40.0407 3.16284 40.2886 3.32578 40.4792C3.48873 40.6508 3.70055 40.7366 3.96125 40.7366H17.6972V44.1967H3.44799Z" fill="#14A800"/>
</svg>
