<svg width="76" height="13" viewBox="0 0 76 13" fill="none" xmlns="http://www.w3.org/2000/svg">
<path d="M6.44151 0.446777L7.7474 4.46589L11.9733 4.46589L8.55449 6.94984L9.86038 10.969L6.44151 8.485L3.02265 10.969L4.32854 6.94984L0.90968 4.46589L5.13563 4.46589L6.44151 0.446777Z" fill="#FFC700"/>
<path d="M22.2306 0.446777L23.5365 4.46589L27.7624 4.46589L24.3435 6.94984L25.6494 10.969L22.2306 8.485L18.8117 10.969L20.1176 6.94984L16.6987 4.46589L20.9247 4.46589L22.2306 0.446777Z" fill="#FFC700"/>
<path d="M38.0157 0.446777L39.3216 4.46589L43.5476 4.46589L40.1287 6.94984L41.4346 10.969L38.0157 8.485L34.5969 10.969L35.9028 6.94984L32.4839 4.46589L36.7098 4.46589L38.0157 0.446777Z" fill="#FFC700"/>
<path d="M53.8048 0.446777L55.1107 4.46589L59.3366 4.46589L55.9178 6.94984L57.2237 10.969L53.8048 8.485L50.3859 10.969L51.6918 6.94984L48.273 4.46589L52.4989 4.46589L53.8048 0.446777Z" fill="#FFC700"/>
<path d="M69.5939 0.446777L70.8997 4.46589L75.1257 4.46589L71.7068 6.94984L73.0127 10.969L69.5939 8.485L66.175 10.969L67.4809 6.94984L64.062 4.46589L68.288 4.46589L69.5939 0.446777Z" fill="#FFC700"/>
</svg>
