<svg width="15" height="16" viewBox="0 0 15 16" fill="none" xmlns="http://www.w3.org/2000/svg">
<g clip-path="url(#clip0_75546_2531)">
<path d="M3.19153 0.0429668C2.922 0.151365 2.78137 0.397459 2.78137 0.76367V1.0039L2.17493 1.01269C1.57727 1.02148 1.56262 1.02441 1.38977 1.10351C1.06458 1.25586 0.836061 1.54297 0.762818 1.88574C0.736451 2.00586 0.730592 3.54687 0.736451 8.11426L0.74524 14.1816L0.862428 14.4131C1.00012 14.6797 1.18469 14.8525 1.44837 14.9492L1.61243 15.0107L7.53626 15.0049L13.4601 14.9961L13.6271 14.917C13.8468 14.8145 14.0431 14.6123 14.1573 14.3721L14.2511 14.1758L14.2599 8.11133C14.2687 1.74804 14.2716 1.86523 14.1427 1.61035C14.046 1.41992 13.8146 1.19726 13.6124 1.10644C13.4337 1.02148 13.422 1.02148 12.8243 1.01269L12.215 1.0039V0.76074C12.215 0.456053 12.1241 0.250975 11.9279 0.113279C11.8107 0.0341778 11.7755 0.0253887 11.5294 0.0165997C11.2072 0.00487995 11.0841 0.0488262 10.9171 0.245115C10.797 0.38574 10.7501 0.546873 10.7501 0.813475V1.00683H7.49817H4.24622V0.813475C4.24622 0.546873 4.19934 0.38574 4.07922 0.245115C3.92102 0.060545 3.79504 0.0107403 3.50794 0.01367C3.37317 0.01367 3.23254 0.0283184 3.19153 0.0429668ZM3.71301 0.555662C3.76575 0.617186 3.77747 0.664061 3.77747 0.819334V1.00683H3.51379H3.25012V0.819334C3.25012 0.582029 3.2677 0.541014 3.37903 0.491209C3.49622 0.438475 3.62805 0.464842 3.71301 0.555662ZM11.5968 0.48242C11.7198 0.526365 11.7462 0.584959 11.7462 0.813475V1.00683H11.4825H11.2189V0.819334C11.2189 0.614256 11.2833 0.494139 11.4034 0.470701C11.4386 0.464842 11.4767 0.456053 11.4855 0.453123C11.4943 0.453123 11.5441 0.464842 11.5968 0.48242ZM2.78723 1.90918C2.79602 2.32812 2.79895 2.34863 2.87805 2.46582C3.02454 2.6914 3.34094 2.8291 3.54016 2.76172C3.64563 2.72363 3.68958 2.65918 3.68958 2.53613C3.68958 2.43066 3.5929 2.33984 3.44934 2.31347C3.27649 2.28125 3.25012 2.21972 3.25012 1.82129V1.47558H7.00012H10.7501V1.82129C10.7501 2.25195 10.7941 2.41894 10.9464 2.56543C11.0958 2.70605 11.2306 2.77051 11.3947 2.77637C11.5763 2.77929 11.6583 2.71191 11.6583 2.55371C11.6583 2.42187 11.5763 2.32519 11.465 2.32519C11.421 2.32519 11.3536 2.29004 11.3038 2.24023C11.2189 2.15527 11.2189 2.14941 11.2189 1.81543V1.47558H12.2531C13.4044 1.47558 13.4161 1.47851 13.6124 1.68359C13.7882 1.87109 13.797 1.92676 13.797 3.08984V4.1416H9.08313H4.37219L4.29309 4.20312C4.19055 4.28515 4.18762 4.4375 4.29016 4.53711L4.36047 4.61035H9.0802H13.797V7.4873C13.797 10.335 13.797 10.3643 13.7355 10.4873C13.7003 10.5635 13.63 10.6426 13.5685 10.6807C13.463 10.7451 13.4337 10.748 12.5372 10.7627L11.6115 10.7773L11.4181 10.874C11.1896 10.9854 11.0402 11.1494 10.9523 11.3779C10.9025 11.5098 10.8966 11.6064 10.8966 12.3477C10.8966 12.8486 10.8849 13.2178 10.8644 13.2969C10.8175 13.4785 10.6652 13.6221 10.4747 13.6631C10.3722 13.6836 8.98059 13.6924 6.01868 13.6865L1.71204 13.6777L1.57141 13.6074C1.41907 13.5342 1.30188 13.3994 1.24036 13.2324C1.20813 13.1416 1.20227 12.3447 1.19934 8.86426V4.61035H2.42688C3.58704 4.61035 3.65735 4.60742 3.7218 4.55469C3.81848 4.47558 3.81848 4.27637 3.7218 4.19726C3.65735 4.14453 3.58704 4.1416 2.42688 4.1416H1.19934V3.08984C1.19934 1.92676 1.20813 1.87109 1.38391 1.68359C1.55969 1.49902 1.64758 1.47558 2.24524 1.47558H2.77551L2.78723 1.90918ZM12.4054 12.2861C11.8282 12.8633 11.3536 13.335 11.3507 13.332C11.3507 13.3291 11.3566 12.9248 11.3654 12.4326C11.38 11.5654 11.3829 11.5361 11.4445 11.4482C11.4825 11.3955 11.5675 11.3281 11.6349 11.293C11.755 11.2344 11.8048 11.2314 12.6105 11.2314H13.4601L12.4054 12.2861ZM13.7677 14.0703C13.7238 14.2402 13.5831 14.4102 13.4249 14.4863L13.2843 14.5566L7.60364 14.5654C3.83606 14.5684 1.86731 14.5625 1.75891 14.542C1.67102 14.5244 1.54797 14.4805 1.48645 14.4395C1.37512 14.3662 1.24915 14.1787 1.21692 14.0381L1.19934 13.959L1.36633 14.0381L1.53626 14.1172H6.31165H11.087L11.2628 14.0205C11.4034 13.9443 11.6818 13.6836 12.6105 12.7549L13.7823 11.583L13.7911 12.7725C13.7941 13.5049 13.7853 14.0029 13.7677 14.0703Z" fill="#14A800"/>
<path d="M2.28516 5.5127C2.2207 5.54785 2.15625 5.61523 2.11816 5.69434C2.05371 5.81738 2.05078 5.8584 2.05078 6.42383C2.05078 7.11816 2.07422 7.21484 2.28223 7.3291C2.3877 7.39062 2.43164 7.39355 3.02344 7.39355C3.70898 7.39355 3.78223 7.37891 3.91113 7.20605C3.9668 7.12988 3.96973 7.08301 3.96973 6.42676C3.96973 5.76465 3.9668 5.72363 3.9082 5.64453C3.78516 5.47461 3.71191 5.45996 3.01758 5.45996C2.46387 5.45996 2.37305 5.46582 2.28516 5.5127ZM3.51562 6.42676V6.9248H3.01758H2.51953V6.42676V5.92871H3.01758H3.51562V6.42676Z" fill="#14A800"/>
<path d="M5.27715 5.50977C5.22441 5.53613 5.15117 5.59766 5.11601 5.64746C5.05449 5.73242 5.05156 5.77051 5.04277 6.38867C5.03398 6.99805 5.03691 7.04492 5.09551 7.15625C5.2039 7.37305 5.28594 7.39355 6.00664 7.39355C6.69219 7.39355 6.76836 7.37891 6.8914 7.20605C6.95293 7.11816 6.95586 7.0918 6.95586 6.4209C6.95586 5.76758 6.95293 5.72363 6.89433 5.64453C6.77129 5.47461 6.69804 5.45996 6.00371 5.45996C5.48222 5.45996 5.35625 5.46875 5.27715 5.50977ZM6.50176 6.42676V6.9248H6.00371H5.50566V6.42676V5.92871H6.00371H6.50176V6.42676Z" fill="#14A800"/>
<path d="M8.26172 5.5127C8.20605 5.53906 8.13281 5.60059 8.10059 5.64453C8.04199 5.72363 8.03906 5.76758 8.03906 6.4209C8.03906 7.0918 8.04199 7.11816 8.10352 7.20605C8.22656 7.37891 8.30273 7.39355 8.98828 7.39355C9.70898 7.39355 9.79102 7.37305 9.89941 7.15625C9.95801 7.04492 9.96094 6.99805 9.95215 6.38867C9.94336 5.77051 9.94043 5.73242 9.87891 5.64746C9.75586 5.47461 9.68262 5.45996 8.98535 5.45996C8.44922 5.45996 8.34668 5.46582 8.26172 5.5127ZM9.48926 6.42676V6.9248H8.99121H8.49316V6.42676V5.92871H8.99121H9.48926V6.42676Z" fill="#14A800"/>
<path d="M11.25 5.5127C11.1943 5.53906 11.1211 5.60059 11.0889 5.64453C11.0303 5.72363 11.0273 5.76465 11.0273 6.42676C11.0273 7.08301 11.0303 7.12988 11.0859 7.20605C11.2148 7.37891 11.2881 7.39355 11.9736 7.39355C12.5654 7.39355 12.6094 7.39062 12.7148 7.3291C12.9229 7.21484 12.9463 7.11816 12.9463 6.42383C12.9463 5.8584 12.9434 5.81738 12.8818 5.69434C12.7676 5.47461 12.7119 5.45996 11.9795 5.45996C11.4375 5.45996 11.335 5.46582 11.25 5.5127ZM12.4775 6.42676V6.9248H11.9795H11.4814V6.42676V5.92871H11.9795H12.4775V6.42676Z" fill="#14A800"/>
<path d="M2.25594 8.24888C2.05965 8.38365 2.04793 8.44224 2.05672 9.17174C2.06551 9.77525 2.06844 9.82799 2.12704 9.90123C2.27352 10.1004 2.28524 10.1034 2.9825 10.1122C3.60067 10.121 3.62118 10.121 3.74715 10.0536C3.96981 9.93345 3.98446 9.88072 3.98446 9.13658C3.98446 8.41588 3.97274 8.36314 3.77352 8.24303C3.68563 8.19029 3.62411 8.18443 3.01473 8.18443C2.37606 8.18443 2.34969 8.18736 2.25594 8.24888ZM3.51571 9.15123V9.64928H3.01766H2.51961V9.15123V8.65318H3.01766H3.51571V9.15123Z" fill="#14A800"/>
<path d="M5.24121 8.25195C5.05664 8.375 5.03906 8.44824 5.03906 9.13379C5.03906 9.69336 5.04492 9.75781 5.10059 9.87207C5.14453 9.96289 5.19434 10.0127 5.28516 10.0566C5.39648 10.1123 5.46387 10.1182 6.00586 10.1182C6.69727 10.1182 6.79395 10.0947 6.9082 9.88672C6.96973 9.78125 6.97266 9.7373 6.97266 9.14844C6.97266 8.44531 6.95801 8.375 6.77051 8.25195C6.67383 8.1875 6.64746 8.18457 6.00586 8.18457C5.36426 8.18457 5.33789 8.1875 5.24121 8.25195ZM6.50391 9.15137V9.64941H6.00586H5.50781V9.15137V8.65332H6.00586H6.50391V9.15137Z" fill="#14A800"/>
<path d="M8.22949 8.25195C8.04199 8.375 8.02734 8.44531 8.02734 9.14844C8.02734 9.7373 8.03027 9.78125 8.0918 9.88672C8.20605 10.0947 8.30273 10.1182 8.99414 10.1182C9.53613 10.1182 9.60352 10.1123 9.71484 10.0566C9.80566 10.0127 9.85547 9.96289 9.89941 9.87207C9.95508 9.75781 9.96094 9.69336 9.96094 9.13379C9.96094 8.44824 9.94336 8.375 9.75879 8.25195C9.66211 8.1875 9.63574 8.18457 8.99414 8.18457C8.35254 8.18457 8.32617 8.1875 8.22949 8.25195ZM9.49219 9.15137V9.64941H8.99414H8.49609V9.15137V8.65332H8.99414H9.49219V9.15137Z" fill="#14A800"/>
<path d="M11.25 8.2959C11.1943 8.32227 11.1211 8.38379 11.0889 8.42773C11.0303 8.50684 11.0273 8.54785 11.0273 9.20996C11.0273 9.86621 11.0303 9.91309 11.0859 9.98926C11.2148 10.1621 11.2881 10.1768 11.9736 10.1768C12.5654 10.1768 12.6094 10.1738 12.7148 10.1123C12.9229 9.99805 12.9463 9.90137 12.9463 9.20703C12.9463 8.6416 12.9434 8.60059 12.8818 8.47754C12.7676 8.25781 12.7119 8.24316 11.9795 8.24316C11.4375 8.24316 11.335 8.24902 11.25 8.2959ZM12.4775 9.20996V9.70801H11.9795H11.4814V9.20996V8.71191H11.9795H12.4775V9.20996Z" fill="#14A800"/>
<path d="M2.25293 10.9766C2.06836 11.0996 2.05078 11.1729 2.05078 11.8613C2.05078 12.5498 2.06836 12.623 2.25293 12.7461C2.34961 12.8105 2.37305 12.8135 3.03516 12.8135H3.71484L3.80859 12.7373C3.97559 12.5938 3.98438 12.5557 3.98438 11.8613C3.98438 11.167 3.97559 11.1289 3.80859 10.9854L3.71484 10.9092H3.03516C2.37305 10.9092 2.34961 10.9121 2.25293 10.9766ZM3.51562 11.8613V12.374H3.01758H2.51953V11.8613V11.3486H3.01758H3.51562V11.8613Z" fill="#14A800"/>
<path d="M5.24414 10.9735C5.05664 11.0995 5.03906 11.1698 5.03906 11.8612C5.03906 12.5526 5.05664 12.6229 5.24414 12.7489C5.34375 12.8163 5.35547 12.8163 6.03809 12.8075L6.73242 12.7987L6.81445 12.7254C6.95801 12.5907 6.97266 12.5145 6.97266 11.8612C6.97266 11.2079 6.95801 11.1317 6.81445 10.9969L6.73242 10.9237L6.03809 10.9149C5.35547 10.9061 5.34375 10.9061 5.24414 10.9735ZM6.50391 11.8612V12.3739H6.00586H5.50781V11.8612V11.3485H6.00586H6.50391V11.8612Z" fill="#14A800"/>
<path d="M8.27637 10.9383C8.19727 10.9706 8.09766 11.0819 8.05957 11.1815C8.04199 11.2284 8.02734 11.369 8.02734 11.4979C8.02734 11.7088 8.03613 11.7381 8.10059 11.8026C8.14453 11.8495 8.20605 11.8758 8.26172 11.8758C8.31738 11.8758 8.37891 11.8495 8.42285 11.8026C8.4873 11.7411 8.49609 11.7059 8.49609 11.5389V11.3485H8.99414H9.49219V11.8612V12.3739H8.99707H8.50195L8.48438 12.3006C8.47266 12.2538 8.42578 12.2069 8.36426 12.1776C8.26758 12.1307 8.25586 12.1307 8.15918 12.1776C7.98633 12.2596 7.9834 12.4999 8.15918 12.6903L8.25586 12.7987L8.95605 12.8075C9.64453 12.8163 9.65625 12.8163 9.75586 12.7489C9.94336 12.6229 9.96094 12.5526 9.96094 11.8612C9.96094 11.1727 9.94336 11.0995 9.75879 10.9764C9.66211 10.912 9.63867 10.909 8.99707 10.912C8.63379 10.912 8.30859 10.9237 8.27637 10.9383Z" fill="#14A800"/>
</g>
<defs>
<clipPath id="clip0_75546_2531">
<rect width="15" height="15" fill="white" transform="translate(0 0.0107422)"/>
</clipPath>
</defs>
</svg>
