<svg width="74" height="47" viewBox="0 0 74 47" fill="none" xmlns="http://www.w3.org/2000/svg">
<path d="M8.35156 13.2414C8.35156 13.5714 8.56448 13.8414 8.80781 13.8414C9.17281 13.8414 9.26406 14.2314 9.26406 15.6414V17.4414H10.1766H11.0891V15.6414C11.0891 14.2314 11.1803 13.8414 11.5453 13.8414C11.7886 13.8414 12.0016 13.5714 12.0016 13.2414C12.0016 12.7014 11.7886 12.6414 10.1766 12.6414C8.56448 12.6414 8.35156 12.7014 8.35156 13.2414Z" fill="#4D4D4F"/>
<path d="M12.3047 15.0414C12.3047 17.4114 12.3047 17.4414 13.0651 17.4414C13.7039 17.4414 13.8255 17.2914 13.8255 16.5414C13.8255 15.7914 13.9472 15.6414 14.5859 15.6414C15.2247 15.6414 15.3464 15.7914 15.3464 16.5414C15.3464 17.2914 15.468 17.4414 16.1068 17.4414C16.8672 17.4414 16.8672 17.4114 16.8672 15.0414C16.8672 12.6714 16.8672 12.6414 16.1068 12.6414C15.468 12.6414 15.3464 12.7914 15.3464 13.5414C15.3464 14.2914 15.2247 14.4414 14.5859 14.4414C13.9472 14.4414 13.8255 14.2914 13.8255 13.5414C13.8255 12.7914 13.7039 12.6414 13.0651 12.6414C12.3047 12.6414 12.3047 12.6714 12.3047 15.0414Z" fill="#4D4D4F"/>
<path d="M17.7812 15.0414V17.4414H19.3021C20.61 17.4414 20.8229 17.3514 20.8229 16.8414C20.8229 16.3614 20.61 16.2414 19.8496 16.2114C18.9067 16.1514 18.9067 16.1514 19.6975 16.0314C20.3363 15.9414 20.5188 15.7314 20.5188 15.1614C20.5188 14.5914 20.3667 14.4414 19.7583 14.4414C19.3325 14.4414 18.9979 14.2914 18.9979 14.1414C18.9979 13.9614 19.4238 13.8414 19.9104 13.8414C20.61 13.8414 20.8229 13.7214 20.8229 13.2414C20.8229 12.7314 20.61 12.6414 19.3021 12.6414H17.7812V15.0414Z" fill="#4D4D4F"/>
<path d="M19.8492 19.5414C16.4121 21.3414 16.1688 26.5014 19.4538 28.3914C21.2788 29.4714 24.0163 29.4414 25.6892 28.3614C27.4229 27.2214 27.9096 26.2914 27.94 24.1614C27.9704 22.5114 27.8488 22.1514 27.0275 21.1314C26.5104 20.5014 25.6283 19.7514 25.0504 19.4814C23.6513 18.7914 21.2483 18.8214 19.8492 19.5414Z" fill="#4D4D4F"/>
<path d="M57.0467 19.5716C55.5259 20.4716 55.2825 20.8016 54.7959 22.4516C54.4309 23.6216 54.4004 24.3116 54.6134 25.2716C55.2521 28.0016 56.7121 29.1416 59.6929 29.1416C61.3354 29.1416 61.8221 29.0216 62.7954 28.3016C64.1338 27.3716 64.4988 26.7716 64.7725 24.8216L64.9854 23.4416H62.3696H59.7538V24.4916C59.7538 25.4516 59.8146 25.5416 60.6663 25.5416C61.7004 25.5416 61.6396 26.1416 60.5446 26.7416C59.0542 27.5216 57.3204 26.1716 57.3204 24.2216C57.3509 22.9016 57.7159 22.2416 58.75 21.7016C59.7538 21.1616 60.3013 21.2516 61.1834 22.1216C61.8221 22.7516 62.0959 22.8416 62.6129 22.6016C62.9779 22.4216 63.495 22.2116 63.7992 22.1216C64.0729 22.0316 64.3163 21.8216 64.3163 21.6716C64.3163 21.2216 62.7042 19.7216 61.7917 19.3016C60.4534 18.7316 58.2329 18.8516 57.0467 19.5716Z" fill="#4D4D4F"/>
<path d="M8.65625 24.1616V29.1416H11.0896C14.9221 29.1416 16.2604 28.3316 16.2604 26.0216C16.2604 25.2716 16.0475 24.7616 15.4696 24.2516C14.9525 23.7716 14.8004 23.4416 15.0133 23.3216C15.1958 23.2016 15.3479 22.5416 15.3479 21.8216C15.3479 19.8416 14.6787 19.4216 11.3633 19.3016L8.65625 19.1816V24.1616ZM12.6104 21.7916C13.0667 22.3316 12.7625 22.8416 11.9717 22.8416C11.5458 22.8416 11.3937 22.6316 11.3937 22.0916C11.3937 21.2516 12.0325 21.1016 12.6104 21.7916ZM12.945 25.2416C13.5229 25.5716 13.7358 26.2916 13.31 26.5316C13.1579 26.5916 12.7017 26.7416 12.2454 26.8616C11.4242 27.0416 11.3937 27.0116 11.3937 25.9916C11.3937 24.8816 11.8196 24.6716 12.945 25.2416Z" fill="#4D4D4F"/>
<path d="M29.3398 24.1616V29.1416H30.7086H32.0469L32.1382 27.4316L32.2294 25.6916L33.294 27.4316L34.3282 29.1416H35.9403C37.7957 29.1416 37.9173 28.9016 36.7311 27.4916C34.6628 25.1216 34.5715 24.9416 35.1494 24.9416C35.8186 24.9416 36.4269 23.9216 36.579 22.5716C36.6703 21.3716 36.579 21.0116 35.9403 20.2616C35.2103 19.4216 35.0582 19.3916 32.2598 19.3016L29.3398 19.1816V24.1616ZM33.4157 21.8216C33.6894 22.0616 33.9023 22.3916 33.9023 22.5116C33.9023 22.9016 33.1723 23.4416 32.6248 23.4416C32.199 23.4416 32.0773 23.2016 32.0773 22.3916C32.0773 21.2216 32.5944 21.0116 33.4157 21.8216Z" fill="#4D4D4F"/>
<path d="M38.4648 24.1916V29.1416H39.8336H41.2023V24.1916V19.2416H39.8336H38.4648V24.1916Z" fill="#4D4D4F"/>
<path d="M43.0273 24.1916V29.1416H44.3961H45.7648V26.3816V23.5916L46.4644 24.3416C46.8294 24.7616 47.529 25.6316 48.0461 26.2916C48.5328 26.9516 49.1715 27.7616 49.4757 28.0616C49.7798 28.3916 50.0232 28.7516 50.0232 28.9016C50.0232 29.0216 50.7228 29.1416 51.544 29.1416H53.0648V24.1916V19.2416H51.6961H50.3273V22.1516C50.3273 24.9716 50.2969 25.0616 49.8103 24.3416C49.5365 23.9216 48.9586 23.1716 48.5328 22.6616C48.1069 22.1516 47.2857 21.1616 46.7382 20.4716C45.7953 19.3616 45.5823 19.2416 44.3657 19.2416H43.0273V24.1916Z" fill="#4D4D4F"/>
<path d="M29.2769 31.121C27.604 31.991 27.2998 33.941 28.6382 35.261C29.2769 35.891 29.7028 36.041 30.524 35.981C31.4365 35.891 31.619 35.771 31.7103 35.111C31.8015 34.421 31.7103 34.331 31.0107 34.451C29.4898 34.751 28.6078 32.921 30.0982 32.561C30.524 32.471 31.0715 32.441 31.3148 32.561C31.6494 32.681 31.7711 32.501 31.7711 31.871C31.7711 30.611 30.7673 30.311 29.2769 31.121Z" fill="#4D4D4F"/>
<path d="M33.6294 31.061C32.8081 31.511 32.1085 32.621 32.0781 33.461C32.0781 33.791 32.4127 34.481 32.869 35.051C33.5077 35.891 33.8119 36.041 34.9069 36.041C36.7319 36.011 37.7052 35.141 37.7052 33.521C37.7052 32.231 37.3402 31.631 36.1235 31.001C35.2719 30.551 34.5419 30.551 33.6294 31.061ZM36.0627 32.921C36.9144 33.941 35.0285 35.081 34.0552 34.121C33.5077 33.581 33.4773 33.281 33.964 32.801C34.481 32.291 35.576 32.351 36.0627 32.921Z" fill="#4D4D4F"/>
<path d="M38.951 31.2111C38.7989 31.4211 38.1906 35.1111 38.1602 35.8011C38.1602 35.9511 38.4947 36.0411 38.9206 36.0411C39.5593 36.0411 39.681 35.8911 39.681 35.2011C39.681 33.9111 40.0764 33.7611 40.4718 34.9011C40.9585 36.3411 41.5972 36.2811 42.1752 34.7811L42.6922 33.4911V34.7511C42.7227 35.9811 42.7531 36.0411 43.6352 36.0411C44.6693 36.0411 44.6389 36.1311 44.2739 34.4511C44.0914 33.7611 43.8785 32.6811 43.7872 32.0511C43.6047 31.0311 43.5135 30.9111 42.7835 31.0011C42.236 31.0611 41.9318 31.3011 41.871 31.6911C41.6581 32.8011 41.2018 32.8911 40.8368 31.9011C40.5631 31.2111 40.2589 30.9411 39.7722 30.9411C39.4072 30.9411 39.0422 31.0611 38.951 31.2111Z" fill="#4D4D4F"/>
<path d="M45.1562 33.491C45.1562 36.011 45.1562 36.041 45.9167 36.041C46.4946 36.041 46.6771 35.891 46.6771 35.351C46.6771 34.841 46.9508 34.571 47.7417 34.271C48.715 33.941 48.8062 33.791 48.8062 32.741C48.8062 31.361 48.2587 30.941 46.4033 30.941H45.1562V33.491Z" fill="#4D4D4F"/>
<path d="M50.1764 31.751C50.0852 32.201 49.7202 33.101 49.3856 33.761C48.5947 35.411 48.6252 36.041 49.5681 36.041C50.0547 36.041 50.3285 35.861 50.3285 35.591C50.3285 35.291 50.6327 35.141 51.241 35.141C51.8493 35.141 52.1535 35.291 52.1535 35.591C52.1535 35.861 52.4272 36.041 52.9139 36.041C53.8568 36.041 53.9177 35.351 53.0964 33.551C52.7618 32.861 52.4272 31.991 52.3056 31.601C52.0014 30.581 50.4502 30.671 50.1764 31.751Z" fill="#4D4D4F"/>
<path d="M54.2812 33.491C54.2812 36.011 54.2812 36.041 55.0417 36.041C55.7413 36.041 55.8021 35.921 55.8021 34.751V33.491L56.7146 34.541C57.2013 35.111 57.6271 35.681 57.6271 35.801C57.6271 35.951 57.9617 36.041 58.3875 36.041C59.1479 36.041 59.1479 36.011 59.1479 33.491C59.1479 31.151 59.0871 30.941 58.5396 30.941C58.0225 30.941 57.9313 31.151 57.9313 32.141C57.9313 32.801 57.84 33.341 57.7183 33.341C57.5663 33.341 57.0796 32.801 56.6233 32.141C56.015 31.301 55.5283 30.941 55.0113 30.941C54.2812 30.941 54.2812 31.001 54.2812 33.491Z" fill="#4D4D4F"/>
<path d="M59.7539 31.361C59.7539 31.601 60.0885 32.201 60.5143 32.681C61.0618 33.311 61.2747 33.941 61.2747 34.811C61.2747 35.921 61.3356 36.041 62.0352 36.041C62.7347 36.041 62.7956 35.921 62.7956 34.751C62.7956 33.791 63.0389 33.161 63.7385 32.201L64.6814 30.941H63.8297C63.3735 30.941 62.7652 31.151 62.4914 31.391C62.0352 31.811 61.9439 31.811 61.5789 31.391C61.0922 30.821 59.7539 30.791 59.7539 31.361Z" fill="#4D4D4F"/>
</svg>
