<svg width="93" height="44" viewBox="0 0 93 44" fill="none" xmlns="http://www.w3.org/2000/svg">
<path d="M15.5995 9.31517C15.542 9.32955 15.2113 9.37269 14.8734 9.42302C14.5355 9.46615 14.2263 9.53086 14.1832 9.55242C14.1473 9.58118 14.025 9.74654 13.9244 9.92627C13.5937 10.4942 13.1551 11.2563 13.0832 11.3641C12.7885 11.8458 12.4362 12.4713 12.4362 12.5144C12.4362 12.5504 12.3931 12.6223 12.3355 12.6726C12.2852 12.7301 12.1342 12.9674 12.0048 13.2046C11.8754 13.4347 11.6957 13.7654 11.6022 13.9379L11.4297 14.2471L11.595 14.2039C11.6813 14.1752 11.8826 14.0961 12.0408 14.0242C13.4283 13.3915 15.0891 13.2406 16.7714 13.5856C17.4112 13.7151 17.4112 13.7151 17.5047 13.5641C17.8354 13.0321 18.1877 12.421 18.1877 12.3706C18.1877 12.3347 18.2308 12.2628 18.2883 12.2053C18.3458 12.155 18.4896 11.9177 18.619 11.6805C18.7413 11.4504 18.9138 11.1413 19.0001 10.9903C19.3811 10.3576 19.5537 10.0485 19.5537 9.99816C19.5537 9.91908 18.655 9.63151 17.9361 9.48772C17.3321 9.3655 15.8439 9.25047 15.5995 9.31517Z" fill="#4D4D4F"/>
<path d="M23.2423 12.3133C23.1633 12.4427 23.0842 12.6009 23.0482 12.6584C23.0195 12.7159 22.926 12.8885 22.8397 13.0323C22.5306 13.5499 21.4594 15.3976 21.3659 15.5773C21.2725 15.757 21.2868 15.7858 21.7973 16.3106C22.6384 17.1949 22.9044 17.5687 23.3574 18.4674C24.3064 20.3438 24.4501 22.8745 23.724 24.8084C23.3214 25.8868 22.6241 27.0227 21.8764 27.8279C21.2868 28.4678 20.1294 29.309 19.4104 29.6325C19.3098 29.6756 19.1516 29.7547 19.0509 29.805C18.7202 29.9776 17.8 30.2508 17.1098 30.3874C15.8517 30.639 14.0975 30.524 13.055 30.1214C12.8609 30.0423 12.6812 29.9848 12.6452 29.9848C12.6093 29.9848 12.3073 29.8553 11.9694 29.6972C11.3152 29.3808 10.625 28.9495 10.208 28.59C9.53944 28.0077 8.64796 27.0299 8.4826 26.6992C8.42509 26.5914 8.346 26.4476 8.29568 26.3901C8.2166 26.2894 7.98654 25.8365 7.7421 25.3117C7.5408 24.8875 7.3323 24.1758 7.21009 23.5287C7.07349 22.8098 7.05192 21.0628 7.16695 20.5811C7.26041 20.2216 7.19571 20.1497 6.92251 20.3295C6.64932 20.5092 6.48396 20.6098 6.14606 20.7896C5.9879 20.8758 5.84411 20.9693 5.82254 20.9909C5.80097 21.0124 5.60686 21.1275 5.39118 21.2425C5.1755 21.3503 4.85198 21.5301 4.67943 21.6379C4.11148 21.983 3.84547 22.134 3.54352 22.2993L3.23438 22.4647V23.1908C3.23438 24.2405 3.51476 25.5489 4.00364 26.8214C4.19775 27.3247 4.72976 28.4175 4.80884 28.475C4.8376 28.4966 4.94544 28.6619 5.05328 28.8488C5.74346 30.0495 7.22446 31.5233 8.69828 32.501C9.17278 32.8102 10.7113 33.601 11.0133 33.6873C11.1067 33.7088 11.344 33.7879 11.5381 33.8598C14.0543 34.7729 17.2464 34.7657 19.7699 33.8526C20.7548 33.4932 21.747 33.033 22.2286 32.7095C22.3365 32.6376 22.5234 32.5082 22.6456 32.4291C22.7607 32.3501 22.8901 32.2853 22.9332 32.2853C22.9691 32.2853 23.0051 32.2566 23.0051 32.2278C23.0051 32.1919 23.192 32.0409 23.4149 31.8827C24.2848 31.2932 25.6939 29.7259 26.3985 28.5828C26.6717 28.1443 27.3906 26.7352 27.3906 26.6417C27.3906 26.6129 27.4409 26.4907 27.4984 26.3685C27.6566 26.0306 27.8507 25.3261 28.088 24.2333C28.2749 23.3418 28.2749 20.7464 28.0808 19.7759C27.8507 18.604 27.4769 17.4897 27.0024 16.5479C26.5207 15.5989 26.4488 15.4695 26.3841 15.4263C26.3481 15.4047 26.2691 15.2825 26.2044 15.1531C26.0174 14.7505 24.8528 13.363 24.1554 12.7087C23.7887 12.3637 23.4652 12.0833 23.4365 12.0833C23.4005 12.0833 23.3142 12.1911 23.2423 12.3133Z" fill="#4D4D4F"/>
<path d="M41.3018 17.037C41.0646 17.0729 40.7555 17.1448 40.6189 17.2095C39.9431 17.5043 39.7561 17.6049 39.5476 17.7918C39.3895 17.9356 39.3679 17.9141 39.2601 17.4899L39.1738 17.1879H38.1745H37.168V22.0407V26.8936H38.4621H39.7561V23.9747C39.7561 21.1636 39.7633 21.0486 39.9071 20.7323C40.2306 20.0205 40.5829 19.7258 41.3522 19.5317C41.7332 19.4382 41.8986 19.431 42.1646 19.4885C42.7829 19.6251 43.056 19.8408 43.358 20.4231C43.5305 20.7467 43.5305 20.7538 43.5521 23.8165L43.5809 26.8936H44.8318H46.09L46.0684 23.6008C46.0396 20.4878 46.0324 20.2865 45.8887 19.8264C45.4573 18.4676 44.7959 17.6984 43.6528 17.2383C43.1495 17.0298 42.0639 16.9435 41.3018 17.037Z" fill="#4D4D4F"/>
<path d="M55.1041 17.0365C54.0472 17.1802 52.8322 17.892 52.1564 18.7691C51.9767 18.9991 51.8329 19.222 51.8329 19.2652C51.8329 19.3083 51.8042 19.3442 51.7754 19.3442C51.6963 19.3442 51.3009 20.286 51.1859 20.7462C50.9414 21.7167 51.0349 23.018 51.4159 24.0173C51.6963 24.7506 52.3577 25.6277 52.9832 26.095C53.1198 26.1957 53.2492 26.3035 53.2708 26.3251C53.2924 26.3467 53.4721 26.4545 53.6662 26.5552C54.6583 27.08 56.0099 27.2525 57.0452 26.9721C57.5844 26.8284 58.2962 26.5552 58.3752 26.4545C58.3968 26.4329 58.5406 26.3323 58.6988 26.2316C59.5399 25.6924 60.2013 24.765 60.5752 23.5931C60.7262 23.1258 60.7477 22.9102 60.7477 22.0331C60.7477 20.8971 60.6255 20.3723 60.1582 19.4736C59.8994 18.992 58.8497 17.8704 58.4831 17.6907C58.368 17.6332 58.2171 17.5541 58.1596 17.5038C58.102 17.4606 57.8217 17.3456 57.5413 17.2378C56.9661 17.0293 55.859 16.943 55.1041 17.0365ZM56.6067 19.5599C57.1674 19.7397 57.6707 20.1854 57.987 20.7893C58.1739 21.1488 58.1883 21.2422 58.1955 22.0043C58.1955 22.752 58.1811 22.867 58.0014 23.2265C57.8217 23.6075 57.3184 24.233 57.189 24.233C57.153 24.233 57.074 24.2833 57.0021 24.348C56.7792 24.5493 56.0315 24.6715 55.5354 24.5853C55.025 24.4918 54.7949 24.384 54.4139 24.0389C53.7669 23.4565 53.429 22.3494 53.6303 21.4939C53.7956 20.7821 54.3133 19.9194 54.5649 19.9194C54.608 19.9194 54.6368 19.8906 54.6368 19.8547C54.6368 19.8044 55.0681 19.6102 55.4995 19.4665C55.7367 19.3874 56.1537 19.4233 56.6067 19.5599Z" fill="#4D4D4F"/>
<path d="M69.3708 17.0439C69.1048 17.0727 68.7956 17.1517 68.6734 17.2164C68.5512 17.2811 68.4074 17.3315 68.3571 17.3315C68.1414 17.3315 67.1565 18.0145 66.7395 18.4602C66.4879 18.719 66.2866 18.9563 66.2866 18.985C66.2866 19.021 66.2147 19.136 66.1212 19.251C65.9487 19.4667 65.7474 19.9125 65.5245 20.5667C65.3304 21.1275 65.3304 22.7738 65.5245 23.4424C66.0206 25.1751 67.1996 26.3972 68.9107 26.9364C69.5218 27.1306 70.974 27.1306 71.5348 26.9364C73.7779 26.1672 75.0791 24.3986 75.0935 22.1124C75.1007 19.7974 73.8354 17.9426 71.7648 17.2236C71.2113 17.0295 70.1185 16.9504 69.3708 17.0439ZM70.9668 19.5746C71.3335 19.6968 71.506 19.8118 71.8439 20.1497C72.0668 20.3798 72.2537 20.6098 72.2537 20.6601C72.2537 20.7033 72.3112 20.8399 72.3759 20.9621C72.455 21.1059 72.5054 21.415 72.5269 21.9111C72.5557 22.5581 72.5341 22.6947 72.3903 23.0614C72.0524 23.9025 71.4988 24.3986 70.708 24.564C70.0897 24.6934 69.4499 24.5712 68.9394 24.2261C68.5153 23.9313 68.3643 23.7372 68.127 23.1692C67.9689 22.7954 67.9401 22.6228 67.9401 22.0046C67.9401 21.3503 67.9617 21.2425 68.163 20.8183C68.4074 20.2935 69.0257 19.6824 69.3996 19.5889C69.529 19.5602 69.7087 19.5098 69.8093 19.4811C70.1472 19.3876 70.4995 19.4164 70.9668 19.5746Z" fill="#4D4D4F"/>
<path d="M84.2165 17.037C83.9793 17.0657 83.6773 17.1448 83.5407 17.2095C83.4113 17.2742 83.2675 17.3317 83.2316 17.3317C83.1956 17.3317 82.9872 17.4467 82.7715 17.5905C82.563 17.7271 82.3617 17.8206 82.3185 17.799C82.2826 17.7775 82.2107 17.6265 82.1676 17.4683L82.0813 17.1807L81.1035 17.2023L80.1258 17.2239L80.1042 22.0551L80.0898 26.8936H81.348H82.6061V24.0538C82.6061 21.2859 82.6133 21.2068 82.7715 20.8042C82.9872 20.2434 83.4616 19.7617 83.9721 19.5964C84.842 19.3088 85.6832 19.5245 86.1001 20.1428C86.4452 20.6604 86.4884 21.1349 86.4884 24.1904V26.8936H87.7106H88.9327V23.608C88.9327 20.4735 88.9256 20.2937 88.7818 19.812C88.6452 19.3519 88.3217 18.6402 88.2138 18.5539C88.1922 18.5323 88.0988 18.4101 88.0053 18.2879C87.7609 17.9284 87.0491 17.418 86.5387 17.2239C86.0139 17.0298 84.9642 16.9435 84.2165 17.037Z" fill="#4D4D4F"/>
</svg>
