<svg width="61" height="61" viewBox="0 0 61 61" fill="none" xmlns="http://www.w3.org/2000/svg">
<rect x="0.929688" y="0.5" width="60" height="60" rx="30" fill="#14A800" fill-opacity="0.1"/>
<g clip-path="url(#clip0_75546_2506)">
<path d="M16.9345 20.832C15.5681 21.1092 14.453 22.1469 14.0985 23.4746C13.9567 24.0031 13.9567 36.9969 14.0985 37.5254C14.4144 38.7178 15.3167 39.6523 16.58 40.0777C16.9216 40.1938 17.289 40.2002 25.12 40.2002H33.3056L33.7567 40.0584C34.8267 39.7232 35.7032 38.866 36.1286 37.7445L36.2704 37.3643L36.2897 30.6805C36.3091 23.2297 36.322 23.5455 35.8708 22.6818C35.5485 22.0695 34.9556 21.483 34.3497 21.1865C33.4667 20.7547 33.8341 20.7676 25.0878 20.774C20.7437 20.7805 17.0763 20.8062 16.9345 20.832Z" fill="#14A800"/>
<path d="M44.3014 22.7719C44.1338 22.8041 43.5602 23.0941 42.9156 23.4615C42.3098 23.8096 40.9627 24.583 39.925 25.1824L38.043 26.2717L38.0559 30.4933L38.0752 34.7086L40.9756 36.3779C42.6063 37.3125 44.0307 38.0859 44.224 38.1439C45.2295 38.4469 46.2994 37.9699 46.8215 36.9967L46.9697 36.7195L46.9891 30.5836C47.002 24.5894 47.002 24.4476 46.873 24.106C46.4928 23.0877 45.4486 22.5463 44.3014 22.7719Z" fill="#14A800"/>
</g>
<defs>
<clipPath id="clip0_75546_2506">
<rect width="33" height="33" fill="white" transform="translate(14 14)"/>
</clipPath>
</defs>
</svg>
