<svg width="60" height="60" viewBox="0 0 60 60" fill="none" xmlns="http://www.w3.org/2000/svg">
<rect width="60" height="60" rx="30" fill="#14A800" fill-opacity="0.12"/>
<g opacity="0.6">
<path d="M15.95 14.125C15.1562 14.4062 14.6062 14.8937 14.2562 15.625L14.0312 16.0938L14.0125 25.3875L14 34.6875H21.95H29.9062L30.0813 34.3125C30.525 33.3562 31.6812 31.9312 32.625 31.1688L32.9062 30.9375H30.9875H29.0625V29.9938V29.05L34.2063 29.075C39.95 29.1062 39.8625 29.1 41.25 29.5625C41.6438 29.6937 42.0188 29.8187 42.0813 29.8438C42.1812 29.8875 42.1875 29.575 42.1875 23.8187V17.75H30.9438H19.7L19.675 16.9187C19.6562 16.4688 19.625 16.0437 19.6 15.9812C19.55 15.8813 20.0188 15.875 28.9938 15.875H38.4375V14.9375V14H27.3625C16.5938 14.0063 16.2687 14.0063 15.95 14.125ZM23.55 21.725C24.1188 21.8438 24.9812 22.275 25.4375 22.6625C26.5563 23.6125 27.125 24.825 27.125 26.2437C27.125 27.0375 27.0125 27.5375 26.6938 28.2125C26.2438 29.175 25.4875 29.9437 24.5312 30.4062C23.825 30.75 23.2688 30.8812 22.5 30.8812C21.7313 30.8812 21.175 30.75 20.4688 30.4062C19.5125 29.9437 18.8063 29.2312 18.3438 28.2812C17.9875 27.5563 17.875 27.0687 17.875 26.25C17.875 25.4312 17.9875 24.9375 18.3438 24.2188C18.7875 23.3125 19.4813 22.5938 20.3688 22.1312C21.3812 21.6062 22.3688 21.4812 23.55 21.725ZM30.9375 22.5V23.4375H30H29.0625V22.5V21.5625H30H30.9375V22.5ZM34.6875 22.5V23.4375H33.75H32.8125V22.5V21.5625H33.75H34.6875V22.5ZM38.4375 26.25V27.1875H33.75H29.0625V26.25V25.3125H33.75H38.4375V26.25Z" fill="#14A800"/>
<path d="M21.5688 23.5565C20.8188 23.8377 20.275 24.3315 19.9188 25.0565C19.725 25.4565 19.7188 25.5002 19.7188 26.2502C19.7188 27.0002 19.725 27.044 19.9188 27.444C20.2812 28.1815 20.8313 28.6752 21.6 28.944C21.9062 29.0502 22.0812 29.069 22.625 29.0502C23.2188 29.0315 23.325 29.0065 23.7188 28.8127C24.2938 28.5377 24.7875 28.044 25.0687 27.469C25.275 27.044 25.2812 27.0127 25.2812 26.2502C25.2812 25.4877 25.275 25.4565 25.0687 25.0315C24.7875 24.4565 24.2938 23.9627 23.7188 23.6877C23.3125 23.4877 23.225 23.469 22.5938 23.4565C22.0312 23.4377 21.8438 23.4565 21.5688 23.5565ZM23.4375 26.2502V27.1877H22.5H21.5625V26.2502V25.3127H22.5H23.4375V26.2502Z" fill="#14A800"/>
<path d="M36.8828 31.0688C34.0703 31.675 31.9078 33.7438 31.1391 36.5625C30.9891 37.1125 30.9766 37.25 30.9766 38.4375C30.9766 39.625 30.9891 39.7625 31.1391 40.3188C31.7328 42.4938 33.0641 44.175 35.0016 45.175C36.1328 45.7625 37.1141 46 38.4391 46C40.5453 46 42.2891 45.275 43.7828 43.7813C45.2828 42.2875 46.0016 40.55 46.0016 38.4375C46.0016 37.1188 45.7703 36.1438 45.1828 35C44.1953 33.0813 42.4703 31.7125 40.3203 31.1438C39.8078 31.0063 39.5578 30.9813 38.5953 30.9625C37.6453 30.9438 37.3766 30.9625 36.8828 31.0688ZM37.5016 35.625V36.5625H36.5641H35.6266V35.625V34.6875H36.5641H37.5016V35.625ZM41.2516 35.625V36.5625H40.3141H39.3766V35.625V34.6875H40.3141H41.2516V35.625ZM35.6391 38.8313C35.7016 39.5625 36.2078 40.3875 36.8641 40.8063C37.4141 41.1563 37.8203 41.2625 38.5641 41.2375C39.1578 41.2188 39.2641 41.1938 39.6578 41C40.5203 40.5875 41.1703 39.6938 41.2391 38.8313L41.2703 38.4375H42.1641H43.0641V38.7625C43.0578 39.8375 42.3703 41.1813 41.3891 42.0188C40.9516 42.3938 40.0578 42.8375 39.4766 42.9688C39.2328 43.025 38.7703 43.0688 38.4391 43.0688C37.6703 43.0688 37.1141 42.9375 36.4078 42.5938C35.4516 42.1313 34.7453 41.4188 34.2828 40.4688C33.9766 39.8438 33.8141 39.2625 33.8141 38.7625V38.4375H34.7141H35.6078L35.6391 38.8313Z" fill="#14A800"/>
</g>
</svg>
