<svg width="60" height="61" viewBox="0 0 60 61" fill="none" xmlns="http://www.w3.org/2000/svg">
<rect y="0.5" width="60" height="60" rx="30" fill="#14A800" fill-opacity="0.1"/>
<path d="M28.2422 13.098C25.9008 13.5128 23.9039 14.5394 22.2797 16.1636C20.775 17.6683 19.7695 19.5034 19.2914 21.6339C19.1578 22.2245 19.1367 22.5269 19.1367 23.898C19.1367 25.2691 19.1578 25.5714 19.2914 26.162C19.5234 27.1745 19.7625 27.8425 20.2266 28.7847C21.2883 30.9152 22.9898 32.6167 25.1133 33.6644C26.0273 34.1144 26.9414 34.4378 27.8906 34.6347C28.8187 34.8316 31.3359 34.8105 32.2641 34.6066C33.2695 34.3745 33.9445 34.1355 34.8867 33.6714C37.8609 32.1948 39.9633 29.4808 40.7086 26.162C40.8422 25.5714 40.8633 25.2691 40.8633 23.898C40.8633 22.5269 40.8422 22.2245 40.7086 21.6339C40.4836 20.6425 40.2445 19.9675 39.7664 19.0112C38.3109 16.0581 35.5828 13.9347 32.2992 13.2034C31.4695 13.0136 29.0648 12.9573 28.2422 13.098ZM31.0547 18.055V18.7511L31.4555 18.8777C32.5734 19.2292 33.4453 20.2698 33.6141 21.4511L33.6633 21.7886H32.6437H31.6312L31.582 21.5777C31.5258 21.3105 31.3078 21.0433 31.0336 20.8886C30.8578 20.7972 30.6328 20.7691 29.9648 20.7691C29.0016 20.7691 28.7836 20.8464 28.5305 21.2964C28.2633 21.7745 28.3687 22.2878 28.8047 22.6605C29.0086 22.8292 29.0789 22.8433 29.7047 22.8433C30.0773 22.8433 30.6258 22.8784 30.907 22.9136C33.1852 23.2089 34.3875 25.7191 33.1641 27.6245C32.7633 28.2503 32.0602 28.7636 31.35 28.9534L31.0547 29.0378V29.7339V30.437H30.0352H29.0227L29.0016 29.755L28.9805 29.073L28.5586 28.9253C27.9891 28.7284 27.7219 28.5808 27.3914 28.2784C26.857 27.7933 26.4844 27.1042 26.3859 26.4081L26.3367 26.0777H27.3422H28.3477L28.4742 26.3941C28.5656 26.598 28.6922 26.7597 28.8609 26.8652C29.093 27.0128 29.2055 27.0269 30 27.0269C31.0055 27.0269 31.2164 26.9495 31.4695 26.4995C31.7367 26.0214 31.6312 25.5081 31.1953 25.1355C30.9914 24.9667 30.9211 24.9527 30.2953 24.9527C28.8258 24.9456 28.0523 24.7206 27.3633 24.0948C26.0203 22.8714 26.0133 20.7761 27.3633 19.5597C27.757 19.2011 28.2141 18.948 28.6922 18.8284L29.0156 18.7511V18.055V17.3589H30.0352H31.0547V18.055Z" fill="#14A800"/>
<path d="M21.4922 36.0625V38.3828H20.4375H19.3828V39.3813V40.3867L21.9984 43.0023C23.4398 44.4438 24.6492 45.625 24.6914 45.625C24.7336 45.625 25.943 44.4438 27.3844 43.0023L30 40.3867V39.3813V38.3828H28.9453H27.8906V37.5461V36.7023L27.4898 36.625C26.8289 36.4914 25.8797 36.2172 25.3031 35.9852C24.15 35.5281 22.7227 34.6984 21.907 34.0164C21.7242 33.8617 21.5555 33.7422 21.5344 33.7422C21.5133 33.7422 21.4922 34.7828 21.4922 36.0625Z" fill="#14A800"/>
<path d="M38.2898 33.8547C38.2336 33.925 37.868 34.2063 37.4672 34.4875C36.0328 35.507 34.2117 36.2945 32.5172 36.625L32.1094 36.7023V39.2336V41.7578H31.0547H30V42.7633V43.7617L32.6227 46.3844C34.057 47.8188 35.2734 49 35.3086 49C35.3508 49 36.5602 47.8188 38.0016 46.3773L40.6172 43.7617V42.7563V41.7578H39.5625H38.5078V37.75C38.5078 35.5 38.4797 33.7422 38.4445 33.7422C38.4094 33.7422 38.3391 33.7914 38.2898 33.8547Z" fill="#14A800"/>
</svg>
