<svg width="60" height="60" viewBox="0 0 60 60" fill="none" xmlns="http://www.w3.org/2000/svg">
<rect width="60" height="60" rx="30" fill="#14A800" fill-opacity="0.12"/>
<g opacity="0.6">
<path d="M28.5174 15.0445C22.185 15.6875 16.971 20.1957 15.4124 26.3533C15.1048 27.5694 15 28.527 15 29.9947C15 31.9517 15.2306 33.3286 15.8667 35.1109C16.7683 37.6341 18.4947 40.0454 20.6194 41.7438C23.8205 44.3019 28.098 45.4482 32.2217 44.8401C37.0654 44.1272 41.3009 41.0239 43.4746 36.5927C45.0052 33.4754 45.4036 29.7152 44.5509 26.3393C43.0692 20.4613 38.2116 16.051 32.2217 15.1424C31.3061 15.0096 29.3911 14.9537 28.5174 15.0445ZM27.8045 21.293C28.3077 21.4468 28.762 21.8661 28.9228 22.3204C29.0206 22.6 29.0905 22.6909 29.2862 22.7678C29.7405 22.9635 30.055 23.3828 30.055 23.8092V23.9839H33.6056C36.2756 23.9839 37.1772 24.0049 37.2401 24.0678C37.3659 24.1936 37.3379 24.4592 37.1912 24.543C37.1003 24.585 35.8352 24.6129 33.5567 24.6129H30.055V25.0672V25.5216H35.5766H41.0982V25.0672V24.6129H40.2944C39.5745 24.6129 39.4767 24.599 39.3439 24.4662C39.2181 24.3404 39.2111 24.3054 39.3019 24.1726C39.3998 24.0258 39.4627 24.0188 40.4412 23.9979C41.7622 23.9769 41.7272 23.942 41.7272 25.0603C41.7272 26.0178 41.6643 26.1506 41.1961 26.1506H40.8885V29.3447V32.5319L40.7138 32.8324C40.6159 32.9932 40.4202 33.2028 40.2805 33.2937C40.0218 33.4545 39.9799 33.4545 37.9041 33.4754L35.7863 33.4964V34.1115C35.7863 34.7125 35.7933 34.7335 35.9541 34.7754C36.2127 34.8383 36.5621 35.1668 36.7019 35.4814C37.1702 36.5018 36.2406 37.6271 35.1643 37.3335C34.1438 37.061 33.8223 35.7679 34.5981 35.069C34.7519 34.9292 34.9546 34.8034 35.0524 34.7754C35.2202 34.7335 35.2272 34.7195 35.2272 34.1115V33.4894H33.6825C32.2357 33.4894 32.1379 33.4964 32.1938 33.6082C32.4594 34.2233 33.4728 36.9841 33.4798 37.1029C33.4798 37.1868 33.4169 37.2916 33.347 37.3335C33.2562 37.3825 30.8728 37.4034 26.127 37.4034C19.8296 37.4034 19.0259 37.3895 18.8861 37.2916C18.8022 37.2357 18.7323 37.1448 18.7323 37.0959C18.7323 36.9351 19.9345 33.8109 20.0952 33.5593C20.5006 32.9163 21.549 32.1265 22.7512 31.5603C23.1286 31.3786 23.6109 31.113 23.8275 30.9593C24.1281 30.7496 24.2609 30.6937 24.4146 30.7216C24.6034 30.7566 24.6034 30.7566 24.6034 30.3931C24.6034 30.0437 24.5894 30.0087 24.2888 29.7571C23.8765 29.4146 23.527 28.8834 23.3732 28.3732C23.2544 27.9888 23.2334 27.9608 22.9679 27.8909C22.4157 27.7442 22.0103 27.1011 22.1152 26.542C22.1781 26.1995 22.5135 25.8361 22.891 25.6893C23.1985 25.5775 23.2055 25.5635 23.2055 25.2769C23.2055 25.1092 23.1566 24.7178 23.0937 24.3963C22.9539 23.6624 22.9958 23.0683 23.2195 22.579C23.548 21.8661 24.2888 21.307 25.0577 21.1812C25.6168 21.0903 27.3781 21.1672 27.8045 21.293ZM38.5611 24.1726C38.6519 24.3054 38.6449 24.3404 38.5121 24.4732C38.3794 24.6059 38.3444 24.6129 38.2116 24.5221C38.0159 24.3893 37.9879 24.2425 38.1347 24.0957C38.2815 23.949 38.4283 23.9769 38.5611 24.1726Z" fill="#14A800"/>
<path d="M24.883 21.8107C24.282 21.9994 23.8207 22.4747 23.6459 23.0757C23.5411 23.4252 23.5411 23.5161 23.6389 24.1102C23.7018 24.4666 23.7648 24.7742 23.7857 24.7951C23.7997 24.8091 23.9325 24.7742 24.0863 24.7113C24.268 24.6344 24.6734 24.5715 25.2675 24.5435C26.3927 24.4806 26.8121 24.3408 27.3293 23.8446C27.532 23.6489 27.7277 23.4951 27.7627 23.4951C27.8815 23.4951 28.203 23.6908 28.3498 23.8586C28.5874 24.1102 28.7971 24.5854 28.9019 25.0817C28.9578 25.3333 29.0068 25.543 29.0207 25.557C29.0347 25.564 29.1465 25.5989 29.2724 25.6269L29.503 25.6758L29.482 24.6134C29.4611 23.593 29.4541 23.544 29.2933 23.4182C29.2025 23.3483 29.0487 23.2854 28.9439 23.2854C28.6363 23.2854 28.4686 23.1177 28.4266 22.7542C28.3847 22.3558 28.21 22.1042 27.8465 21.9225C27.6089 21.7967 27.4202 21.7827 26.3159 21.7687C25.6239 21.7617 24.9809 21.7827 24.883 21.8107Z" fill="#14A800"/>
<path d="M27.6183 24.3609C27.4226 24.5706 26.7586 24.9271 26.3882 25.0249C26.2344 25.0599 25.7451 25.1088 25.3048 25.1228C24.4032 25.1507 23.9489 25.3045 23.865 25.612C23.844 25.7029 23.837 26.3249 23.851 26.9959C23.872 28.1212 23.886 28.24 24.0397 28.5615C24.4241 29.3304 25.1231 29.7847 26.0037 29.8406C26.4301 29.8615 26.6048 29.8406 26.9403 29.7148C27.4715 29.5121 27.9677 29.0578 28.2194 28.5336C28.4011 28.1631 28.4151 28.0793 28.436 27.0448C28.45 26.4438 28.429 25.7169 28.3871 25.4373C28.3032 24.8921 28.0097 24.1932 27.8629 24.1932C27.814 24.1932 27.7022 24.2701 27.6183 24.3609Z" fill="#14A800"/>
<path d="M30.1338 26.3606C30.1757 26.4725 30.2246 26.5703 30.2386 26.5703C30.2526 26.5703 30.2666 26.4725 30.2666 26.3606C30.2666 26.2208 30.2316 26.151 30.1687 26.151C30.0849 26.151 30.0779 26.1929 30.1338 26.3606Z" fill="#14A800"/>
<path d="M30.8945 29.3237V32.4899L31.0693 32.6786L31.237 32.8604H35.5774H39.9248L40.1275 32.6577L40.3301 32.455V29.3028V26.1506H35.6123H30.8945V29.3237ZM35.3677 28.4641C35.3677 28.8485 35.3817 28.8834 35.4935 28.8345C35.7591 28.7157 36.2414 28.7297 36.458 28.8624C36.6957 29.0162 36.9054 29.3936 36.9054 29.6732C36.9054 30.3442 36.2134 30.8404 35.6193 30.5958C35.4795 30.5399 35.3677 30.5189 35.3677 30.5609C35.3677 30.5958 35.2768 30.6238 35.158 30.6238H34.9483V29.3307V28.0377H35.158H35.3677V28.4641ZM33.837 28.8065C33.9279 28.8555 33.9698 28.8555 33.9698 28.8065C33.9698 28.7716 34.0817 28.7366 34.2145 28.7366H34.4591V29.6802V30.6238H34.2145C34.0817 30.6238 33.9698 30.5958 33.9698 30.5609C33.9698 30.5259 33.837 30.5469 33.6693 30.6098C33.3897 30.7076 33.3548 30.7076 33.0403 30.5678C32.7677 30.442 32.6838 30.3652 32.565 30.0926C32.3693 29.6592 32.4322 29.3517 32.7817 29.0022C33.0123 28.7716 33.0892 28.7366 33.3688 28.7366C33.5505 28.7366 33.7602 28.7716 33.837 28.8065ZM38.8554 28.9184C39.114 29.128 39.121 29.1909 38.9253 29.2958C38.8135 29.3587 38.7575 29.3517 38.6597 29.2678C38.457 29.0861 38.0586 29.1211 37.8909 29.3377C37.4645 29.8829 38.1355 30.5329 38.6667 30.0856C38.7575 30.0017 38.8065 30.0017 38.9253 30.0786C39.1489 30.2114 39.0791 30.3582 38.7086 30.5399C38.2753 30.7566 37.9468 30.7006 37.5903 30.3442C37.3597 30.1135 37.3247 30.0367 37.3247 29.7571C37.3247 29.128 37.7022 28.7366 38.3172 28.7366C38.5618 28.7366 38.6946 28.7786 38.8554 28.9184Z" fill="#14A800"/>
<path d="M35.6048 29.212C35.486 29.2889 35.3672 29.5475 35.3672 29.7362C35.3672 30.1835 36.0032 30.4142 36.2828 30.0717C36.4575 29.855 36.4505 29.4706 36.2758 29.2959C36.136 29.1561 35.7586 29.1072 35.6048 29.212Z" fill="#14A800"/>
<path d="M33.0613 29.2962C32.8866 29.4709 32.8796 29.8553 33.0473 30.065C33.1382 30.1768 33.25 30.2188 33.4457 30.2188C33.7812 30.2188 33.9699 30.023 33.9699 29.6736C33.9699 29.3591 33.7603 29.1564 33.4457 29.1564C33.292 29.1564 33.1452 29.2123 33.0613 29.2962Z" fill="#14A800"/>
<path d="M22.8561 26.3604C22.7163 26.5001 22.6884 26.605 22.7093 26.8846C22.7233 27.0243 23.0169 27.3389 23.1427 27.3389C23.1776 27.3389 23.2056 27.0873 23.2056 26.7797C23.2056 26.1716 23.1357 26.0808 22.8561 26.3604Z" fill="#14A800"/>
<path d="M29.0078 26.7797C29.0078 27.2969 29.0218 27.3389 29.1476 27.3389C29.3643 27.3389 29.6369 27.0313 29.6369 26.7937C29.6369 26.5211 29.3922 26.2206 29.1756 26.2206C29.0148 26.2206 29.0078 26.2346 29.0078 26.7797Z" fill="#14A800"/>
<path d="M30.0705 27.2824C29.9097 27.597 29.5393 27.8975 29.3296 27.8975C29.092 27.8975 28.9522 28.0373 28.9032 28.3029C28.8403 28.6803 28.4909 29.2674 28.0925 29.6518C27.771 29.9664 27.75 30.0083 27.75 30.3368C27.75 30.6443 27.771 30.6932 27.8898 30.6932C27.9597 30.6932 28.2183 30.826 28.4629 30.9938C28.7075 31.1615 29.2108 31.4411 29.5882 31.6228L30.2662 31.9443V29.4701C30.2662 28.1072 30.2592 26.9889 30.2452 26.9889C30.2382 26.9889 30.1613 27.1217 30.0705 27.2824Z" fill="#14A800"/>
<path d="M25.1641 30.7707L25.1711 31.2879L25.6254 31.6374C25.877 31.8261 26.1146 31.9799 26.1565 31.9659C26.1915 31.9589 26.4431 31.7702 26.7087 31.5605L27.191 31.1691V30.7218C27.191 30.4772 27.184 30.2745 27.177 30.2745C27.163 30.2745 26.9324 30.3234 26.6598 30.3793C26.1845 30.4772 25.6463 30.4492 25.2899 30.3094C25.178 30.2675 25.1641 30.3094 25.1641 30.7707Z" fill="#14A800"/>
<path d="M24.0722 31.4769C23.9604 31.5608 23.8625 31.6376 23.8485 31.6446C23.8276 31.6586 24.191 32.2737 24.5055 32.7769L24.6104 32.9307L25.0437 32.6581C25.2813 32.5043 25.477 32.3505 25.477 32.3156C25.477 32.2527 24.3727 31.3231 24.3028 31.3231C24.2889 31.3231 24.184 31.393 24.0722 31.4769Z" fill="#14A800"/>
<path d="M27.3073 31.7982C26.9718 32.0568 26.7062 32.2874 26.6992 32.3084C26.6992 32.3573 27.6148 32.9514 27.6428 32.9165C27.6498 32.9025 27.8245 32.6159 28.0272 32.2735C28.3837 31.6794 28.3906 31.6444 28.2648 31.5536C27.9363 31.3019 27.9224 31.3089 27.3073 31.7982Z" fill="#14A800"/>
<path d="M22.7168 32.2174C22.0179 32.5738 21.7383 32.7416 21.7383 32.8045C21.7383 32.8394 21.8641 32.9932 22.0179 33.1469C22.5351 33.6851 22.9614 34.8384 23.0383 35.9357C23.0593 36.2223 23.0872 36.5298 23.1082 36.6137L23.1361 36.7744H25.9529H28.7696L28.8534 36.0196C28.9653 35.0271 29.0911 34.5518 29.4266 33.8599C29.6223 33.4615 29.811 33.2029 30.0416 33.0002C30.3561 32.7206 30.3631 32.7066 30.2303 32.6088C30.0137 32.448 28.9932 31.9448 28.9233 31.9657C28.8954 31.9797 28.6577 32.3292 28.3991 32.7486C28.1335 33.1679 27.8749 33.5453 27.812 33.5803C27.7212 33.6362 27.5324 33.5523 26.9453 33.1749C26.533 32.9093 26.1555 32.6996 26.1136 32.6996C26.0717 32.6996 25.6942 32.9163 25.2749 33.1749C24.6878 33.5453 24.4921 33.6362 24.4082 33.5873C24.3453 33.5453 24.0867 33.1749 23.8281 32.7555C23.5765 32.3362 23.3388 31.9867 23.3039 31.9727C23.2689 31.9588 23.0034 32.0706 22.7168 32.2174Z" fill="#14A800"/>
<path d="M20.8765 33.4824C20.548 33.8459 20.4921 33.9717 19.9958 35.2787C19.7652 35.8938 19.5485 36.4739 19.5066 36.5787L19.4297 36.7744H20.9813H22.526L22.477 36.1454C22.3862 34.9502 21.9948 33.8738 21.4915 33.4335C21.3587 33.3077 21.212 33.2098 21.184 33.2098C21.1491 33.2098 21.0093 33.3357 20.8765 33.4824Z" fill="#14A800"/>
<path d="M30.3697 33.4685C29.9015 33.9367 29.531 34.9152 29.4541 35.9007C29.4332 36.1663 29.4052 36.4739 29.3912 36.5787L29.3633 36.7744H31.0757C32.6832 36.7744 32.795 36.7674 32.7461 36.6486C32.7182 36.5857 32.4805 35.9497 32.2149 35.2437C31.9493 34.5378 31.6558 33.8529 31.5579 33.7271C31.4112 33.5314 30.866 33.2098 30.6843 33.2098C30.6633 33.2098 30.5165 33.3287 30.3697 33.4685Z" fill="#14A800"/>
<path d="M35.2406 35.3206C34.8212 35.4325 34.6185 35.9916 34.8422 36.4249C34.982 36.6905 35.1427 36.7744 35.5272 36.7744C36.0583 36.7744 36.3799 36.2921 36.2051 35.7679C36.0793 35.3835 35.6949 35.2088 35.2406 35.3206Z" fill="#14A800"/>
</g>
</svg>
