<svg width="61" height="61" viewBox="0 0 61 61" fill="none" xmlns="http://www.w3.org/2000/svg">
<rect x="0.929688" y="0.5" width="60" height="60" rx="30" fill="#14A800" fill-opacity="0.12"/>
<path d="M19.13 15.9024C18.0183 16.2238 17.0204 17.0275 16.5048 18.0187C15.9891 19.0165 16.0159 18.5946 16.0159 25.9548C16.0159 33.315 15.9891 32.8931 16.5048 33.8909C17.0338 34.9156 18.1255 35.7728 19.2372 36.034C19.8868 36.1814 42.1482 36.1814 42.7978 36.034C43.9095 35.7728 45.0012 34.9156 45.5303 33.8909C46.0459 32.8931 46.0192 33.315 46.0192 25.9548C46.0192 18.5946 46.0459 19.0165 45.5303 18.0187C45.1552 17.2954 44.4989 16.639 43.7756 16.264C42.7509 15.7349 43.7689 15.7751 30.9773 15.7818C20.3355 15.7818 19.5051 15.7952 19.13 15.9024ZM24.3873 22.4053C24.4677 22.4857 24.5213 22.6263 24.5213 22.7536C24.5213 22.9411 24.3538 23.1353 23.0345 24.4613L21.5477 25.9548L23.0345 27.4483C24.3538 28.7743 24.5213 28.9685 24.5213 29.156C24.5213 29.4373 24.3203 29.6382 24.0391 29.6382C23.8448 29.6382 23.6372 29.4574 22.0969 27.9104C20.503 26.3231 20.369 26.1691 20.369 25.9548C20.369 25.7405 20.503 25.5865 22.0969 23.9992C23.6372 22.4522 23.8448 22.2714 24.0391 22.2714C24.1663 22.2714 24.3069 22.3249 24.3873 22.4053ZM39.9381 23.9992C41.5321 25.5865 41.666 25.7405 41.666 25.9548C41.666 26.1691 41.5321 26.3231 39.9381 27.9104C38.3978 29.4574 38.1902 29.6382 37.9959 29.6382C37.7147 29.6382 37.5138 29.4373 37.5138 29.156C37.5138 28.9685 37.6812 28.7743 39.0005 27.4483L40.4873 25.9548L39.0005 24.4613C37.6812 23.1353 37.5138 22.9411 37.5138 22.7536C37.5138 22.4723 37.7147 22.2714 37.9959 22.2714C38.1902 22.2714 38.3978 22.4522 39.9381 23.9992ZM27.535 23.4099C27.7292 23.517 27.8029 23.8519 27.8029 24.6556V25.419H28.573C29.4638 25.419 29.7785 25.5128 29.8522 25.7807C29.9861 26.3231 29.6848 26.4906 28.573 26.4906H27.8029V27.2607C27.8029 28.1515 27.7091 28.4662 27.4412 28.5399C26.8988 28.6738 26.7313 28.3725 26.7313 27.2607V26.4906H25.9611C24.8494 26.4906 24.548 26.3231 24.682 25.7807C24.7557 25.5128 25.0704 25.419 25.9611 25.419H26.7313V24.6556C26.7313 23.8653 26.7916 23.5706 26.9791 23.4233C27.1131 23.3295 27.3609 23.3161 27.535 23.4099ZM35.0358 23.4099C35.23 23.517 35.3037 23.8519 35.3037 24.6556V25.419H36.0739C36.9646 25.419 37.2794 25.5128 37.353 25.7807C37.487 26.3231 37.1856 26.4906 36.0739 26.4906H35.3037V27.2607C35.3037 28.3725 35.1363 28.6738 34.5938 28.5399C34.3259 28.4662 34.2321 28.1515 34.2321 27.2607V26.4906H33.462C32.5712 26.4906 32.2565 26.3968 32.1828 26.1289C32.0489 25.5865 32.3502 25.419 33.462 25.419H34.2321V24.6556C34.2321 23.8653 34.2924 23.5706 34.4799 23.4233C34.6139 23.3295 34.8617 23.3161 35.0358 23.4099Z" fill="#14A800"/>
<path d="M28.875 39.5297C28.875 41.7397 28.8817 41.8737 29.0089 42.0813C29.2835 42.53 29.4108 42.5635 31.0181 42.5635C32.6254 42.5635 32.7527 42.53 33.0272 42.0813C33.1545 41.8737 33.1612 41.7397 33.1612 39.5297V37.2057H31.0181H28.875V39.5297Z" fill="#14A800"/>
<path d="M25.6203 40.4943C25.1113 40.6416 24.7898 40.9631 23.9661 42.1284C22.3722 44.392 22.4458 44.2648 22.4458 44.6934C22.4458 45.1421 22.5999 45.4435 22.928 45.6444C23.1423 45.7783 23.283 45.7783 31.0182 45.7783C38.7534 45.7783 38.8941 45.7783 39.1084 45.6444C39.4365 45.4435 39.5906 45.1421 39.5906 44.6934C39.5906 44.2648 39.6642 44.392 38.0703 42.1284C36.9318 40.5144 36.7778 40.4206 35.1972 40.4206H34.2529L34.2128 41.1372C34.1927 41.539 34.1391 41.9743 34.0989 42.1083C33.9315 42.6976 33.2885 43.3272 32.6724 43.5147C32.4849 43.575 31.929 43.6017 31.0182 43.6017C30.1074 43.6017 29.5515 43.575 29.364 43.5147C28.7479 43.3272 28.1049 42.6976 27.9375 42.1083C27.8973 41.9743 27.8438 41.539 27.8237 41.1372L27.7835 40.4206L26.8057 40.4273C26.2699 40.4273 25.7341 40.4608 25.6203 40.4943Z" fill="#14A800"/>
</svg>
