<svg width="60" height="61" viewBox="0 0 60 61" fill="none" xmlns="http://www.w3.org/2000/svg">
<rect y="0.5" width="60" height="60" rx="30" fill="#14A800" fill-opacity="0.1"/>
<path d="M29.8275 16.5764C29.781 16.603 29.4357 17.2538 29.0505 18.0307C28.6056 18.9073 28.3001 19.4452 28.2271 19.4717C28.1075 19.505 25.4115 19.91 25.2919 19.91C25.2587 19.91 25.179 19.9565 25.1259 20.0163C24.8935 20.2487 24.9865 20.3882 26.1486 21.5303C26.7728 22.1346 27.2775 22.6725 27.2775 22.719C27.2775 22.7589 27.1712 23.403 27.045 24.1401C26.7927 25.6077 26.7728 25.8202 26.8923 25.9397C27.0517 26.0991 27.3173 26.0061 28.6454 25.3155L30.0001 24.6182L31.3548 25.3155C32.6896 26.0061 32.9486 26.0991 33.1079 25.9397C33.2275 25.8202 33.2075 25.6409 32.9552 24.1534C32.829 23.4096 32.7228 22.7589 32.7228 22.7124C32.7228 22.6725 33.2341 22.1346 33.8517 21.5303C35.0138 20.3882 35.1068 20.2487 34.8743 20.0163C34.8212 19.9565 34.7482 19.91 34.715 19.91C34.6286 19.91 31.9724 19.5116 31.8064 19.4784C31.6868 19.4518 31.5142 19.153 30.9564 18.0307C30.5712 17.2604 30.2193 16.603 30.1794 16.5764C30.0798 16.51 29.9204 16.51 29.8275 16.5764Z" fill="#14A800"/>
<path d="M20.1918 19.1933C20.152 19.2398 19.8199 19.8839 19.448 20.621C19.0828 21.3581 18.7574 21.9757 18.7242 21.9956C18.6977 22.0089 18.0004 22.1218 17.1836 22.2413C15.6496 22.4605 15.457 22.5269 15.457 22.7925C15.457 22.8855 15.8488 23.3238 16.5992 24.0742L17.7348 25.2163L17.4891 26.6706C17.3496 27.4675 17.25 28.2113 17.2633 28.3175C17.2766 28.4503 17.3363 28.5234 17.4559 28.5699C17.602 28.6163 17.8211 28.5234 19.0363 27.8859L20.4375 27.1421L21.8453 27.8859C23.0473 28.5167 23.2797 28.6163 23.4191 28.5699C23.5387 28.5234 23.5984 28.4503 23.6117 28.3175C23.625 28.2113 23.5254 27.4675 23.3859 26.6706L23.1402 25.2097L24.2824 24.0675C25.4711 22.8788 25.5641 22.7328 25.2719 22.5402C25.1855 22.4871 24.4617 22.3542 23.6582 22.2347C22.8547 22.1218 22.1707 21.9956 22.1309 21.9624C22.0977 21.9226 21.7523 21.2785 21.3672 20.5214C20.7031 19.2132 20.6633 19.1468 20.4641 19.1269C20.3512 19.1136 20.2316 19.1468 20.1918 19.1933Z" fill="#14A800"/>
<path d="M39.3168 19.1933C39.277 19.2398 38.9449 19.8839 38.573 20.621C38.2078 21.3581 37.8824 21.9757 37.8559 21.989C37.8227 22.0089 37.132 22.1218 36.3086 22.2413C34.7746 22.4605 34.582 22.5269 34.582 22.7925C34.582 22.8855 34.9738 23.3238 35.7242 24.0742L36.8598 25.2163L36.6141 26.6706C36.4746 27.4675 36.375 28.2113 36.3883 28.3175C36.4016 28.4503 36.4613 28.5234 36.5809 28.5699C36.727 28.6163 36.9461 28.5234 38.1613 27.8859L39.5625 27.1421L40.9703 27.8859C42.1723 28.5167 42.4047 28.6163 42.5441 28.5699C42.6637 28.5234 42.7234 28.4503 42.7367 28.3175C42.75 28.2113 42.6504 27.4675 42.5109 26.6706L42.2652 25.2097L43.4074 24.0675C44.5961 22.8788 44.6891 22.7328 44.3969 22.5402C44.3105 22.4871 43.5867 22.3542 42.7832 22.2347C41.9797 22.1218 41.2957 21.9956 41.2559 21.9624C41.2227 21.9226 40.8773 21.2785 40.4922 20.5214C39.8281 19.2132 39.7883 19.1468 39.5891 19.1269C39.4762 19.1136 39.3566 19.1468 39.3168 19.1933Z" fill="#14A800"/>
<path d="M29.3691 27.9055C29.0305 28.0582 28.891 28.2773 28.5988 29.1074C27.7289 31.6043 26.3875 33.5434 24.5879 34.9047L24.1363 35.25H23.6184H23.0938V39.5V43.75H23.8641H24.6344L25.1723 44.2547C25.823 44.8656 26.3676 45.2441 26.9652 45.4965C27.8219 45.8551 28.0941 45.875 31.9125 45.875H35.4121L35.8105 45.6891C36.2555 45.4766 36.6605 45.0715 36.8398 44.6531C37.0324 44.2215 38.5 37.3086 38.5 36.8437C38.5 36.1863 38.1879 35.6949 37.5902 35.3895C37.318 35.2566 37.2316 35.25 34.3828 35.25C32.7758 35.25 31.4609 35.2367 31.4609 35.2168C31.4609 35.1969 31.5473 35.0109 31.6535 34.7984C31.9324 34.234 32.2844 33.2645 32.5898 32.1887C32.8422 31.3121 32.8621 31.1793 32.8422 30.6016C32.8223 30.057 32.7891 29.9043 32.6098 29.5191C32.3574 28.9945 31.8594 28.4367 31.4078 28.191C30.7703 27.8457 29.8074 27.7129 29.3691 27.9055Z" fill="#14A800"/>
<path d="M17.3828 34.3203C17.25 34.4531 17.25 34.5395 17.25 39.5C17.25 44.4605 17.25 44.5469 17.3828 44.6797C17.509 44.8059 17.602 44.8125 19.375 44.8125C21.148 44.8125 21.241 44.8059 21.3672 44.6797C21.5 44.5469 21.5 44.4605 21.5 39.5C21.5 34.5395 21.5 34.4531 21.3672 34.3203C21.241 34.1941 21.148 34.1875 19.375 34.1875C17.602 34.1875 17.509 34.1941 17.3828 34.3203Z" fill="#14A800"/>
</svg>
