<svg width="60" height="60" viewBox="0 0 60 60" fill="none" xmlns="http://www.w3.org/2000/svg">
<rect width="60" height="60" rx="30" fill="#14A800" fill-opacity="0.12"/>
<g opacity="0.6">
<path d="M33.0428 15.0716C32.1772 15.3892 31.76 16.0369 31.7039 17.1391L31.6728 17.7805L30.7948 17.7992C29.9354 17.8179 29.9105 17.8241 29.6552 18.0047C29.4621 18.1417 29.3189 18.3285 29.1383 18.671L28.883 19.1567H27.1456C25.6448 19.1567 25.3646 19.1692 25.047 19.2688C24.2997 19.5055 23.7081 20.0286 23.3532 20.7758L23.129 21.2429L23.1103 25.9134L23.0916 30.5838H22.4502C21.8275 30.5838 21.7901 30.5901 21.5286 30.7706C21.3853 30.8765 21.1923 31.0882 21.1051 31.2377C20.9556 31.5055 20.9494 31.5802 20.9183 32.7322L20.8871 33.9466L20.2084 34.9367C19.623 35.7898 19.5171 35.9144 19.4611 35.8147C19.3054 35.5532 19.075 35.3228 18.882 35.2481C18.5955 35.1235 15.9551 35.1235 15.6687 35.2481C15.4071 35.3539 15.1518 35.6591 15.0646 35.958C14.9774 36.288 14.9774 43.8915 15.0709 44.2216C15.158 44.533 15.4694 44.8443 15.7808 44.9315C15.9302 44.9689 16.5716 45 17.3376 45C18.8072 44.9938 19.0314 44.9502 19.3241 44.6077L19.5047 44.396L20.2582 44.6949L21.0117 44.9875L31.4673 44.9315C40.6277 44.8879 41.9665 44.8692 42.2966 44.782C42.9816 44.6077 43.5794 44.1655 43.9406 43.5553C44.3578 42.864 44.3329 43.5677 44.3329 32.0472C44.3329 20.6388 44.3516 21.2678 43.9779 20.5766C43.7226 20.1095 43.2431 19.6674 42.7138 19.4121L42.2468 19.1879L40.3599 19.1692L38.4792 19.1505L38.2551 18.7022C37.8378 17.8739 37.6821 17.7867 36.5612 17.7867H35.7579L35.7268 17.1391C35.6707 16.149 35.3656 15.5823 34.6681 15.2024C34.3941 15.053 34.2509 15.0156 33.8088 15.0031C33.46 14.9907 33.1985 15.0156 33.0428 15.0716ZM34.1637 16.0867C34.5374 16.2611 34.693 16.5786 34.7304 17.2263L34.7615 17.7867H33.7154H32.6692L32.7003 17.2263C32.7315 16.7655 32.7626 16.6222 32.8934 16.4292C33.1674 16.012 33.7029 15.8625 34.1637 16.0867ZM37.6759 19.8231C38.0994 20.7073 38.1679 20.8879 38.1118 21.0063L38.0433 21.1495H33.7278C29.3251 21.1495 29.2628 21.1433 29.2628 20.9253C29.2628 20.8257 30.0911 19.0011 30.1969 18.8765C30.2654 18.7956 30.7076 18.7831 33.7278 18.7831H37.1777L37.6759 19.8231ZM30.2592 23.4536C30.5145 23.5221 30.8446 23.8334 30.938 24.095C30.9816 24.2009 31.0065 24.8796 31.0065 25.8199C31.0065 26.7603 30.9816 27.439 30.938 27.5449C30.8446 27.8065 30.5145 28.1178 30.2592 28.1863C29.9479 28.2735 26.7844 28.2673 26.5166 28.1801C26.3983 28.1365 26.2239 28.0369 26.1243 27.9435C25.7942 27.6445 25.7756 27.52 25.7756 25.8199C25.7756 24.1137 25.7942 24.0016 26.1305 23.684C26.2364 23.5906 26.3983 23.4847 26.4979 23.4536C26.747 23.3788 29.9914 23.3788 30.2592 23.4536ZM41.5244 24.425C41.6925 24.643 41.6863 24.7924 41.4995 24.9793L41.35 25.1349H37.3583C33.4538 25.1349 33.3729 25.1349 33.2483 25.0104C33.1798 24.9419 33.1238 24.8049 33.1238 24.699C33.1238 24.5932 33.1798 24.4562 33.2483 24.3877C33.3729 24.2631 33.4538 24.2631 37.3832 24.2631H41.3998L41.5244 24.425ZM38.6349 26.6606C38.8404 26.8599 38.8342 27.0841 38.6287 27.246C38.4668 27.3705 38.3983 27.3768 35.9074 27.3768C33.6157 27.3768 33.3417 27.3643 33.2359 27.2709C33.0802 27.1277 33.0864 26.7914 33.2608 26.6295C33.3915 26.5112 33.4663 26.5049 35.9385 26.5049H38.4855L38.6349 26.6606ZM30.4149 30.5029C30.6578 30.6336 30.857 30.8516 30.938 31.0696C31.0314 31.3062 31.0314 34.3451 30.938 34.5817C30.9069 34.6752 30.7885 34.8433 30.6827 34.9554C30.4211 35.2294 30.035 35.3041 29.1694 35.2605C28.7958 35.2418 27.9987 35.2107 27.4009 35.1858C26.1741 35.1484 26.1056 35.1235 25.9001 34.6938C25.7756 34.4385 25.7693 34.3451 25.788 32.7447C25.8067 31.1567 25.8129 31.0509 25.9375 30.889C26.1118 30.6523 26.3423 30.4842 26.5913 30.4281C26.7097 30.397 27.5753 30.3783 28.5156 30.3846C29.979 30.397 30.253 30.4095 30.4149 30.5029ZM41.5244 31.4619C41.6925 31.6798 41.6863 31.8293 41.4995 32.0161L41.35 32.1718H37.4206C33.485 32.1718 33.3044 32.1656 33.1736 31.9601C33.0802 31.8231 33.1238 31.5491 33.2608 31.4245C33.3915 31.3 33.46 31.3 37.3957 31.3H41.3998L41.5244 31.4619ZM22.9359 31.6362C23.2473 31.767 23.6022 32.1095 23.7392 32.4209C23.8202 32.6015 23.8762 32.8879 23.8949 33.2616C23.9198 33.7847 23.9074 33.8843 23.6645 34.6752C23.5275 35.1422 23.4092 35.5968 23.4092 35.6902C23.4092 35.7774 23.4777 35.9206 23.5649 36.0016L23.7143 36.1572H25.9312C28.2914 36.1572 28.4222 36.1697 28.5778 36.4624C28.6775 36.6554 28.6526 37.0042 28.5218 37.1598C28.4097 37.3031 28.3599 37.3093 27.3947 37.3404C26.4294 37.3716 26.3796 37.3778 26.2675 37.521C26.1118 37.7141 26.1118 38.0503 26.2738 38.2123C26.3858 38.3243 26.4793 38.3368 27.3199 38.3368C28.4408 38.3368 28.6588 38.3742 28.8581 38.5734C29.1321 38.8474 29.0324 39.3207 28.6588 39.5138C28.5716 39.5573 28.0797 39.5823 27.3075 39.5823C26.1679 39.5823 26.0807 39.5885 25.9624 39.7068C25.7693 39.8998 25.7942 40.2859 25.9997 40.4479C26.1492 40.5662 26.2488 40.5786 27.0023 40.5786C28.1046 40.5786 28.2665 40.6596 28.2665 41.1827C28.2665 41.3384 28.2167 41.4504 28.0859 41.5812L27.9053 41.7618H26.5913C25.1653 41.7618 25.0096 41.7929 24.91 42.0794C24.8352 42.2974 24.9287 42.6087 25.0906 42.6959C25.1528 42.7333 25.5763 42.7582 26.0247 42.7582C27.0958 42.7582 27.3324 42.8703 27.3324 43.3934C27.3324 43.549 27.2826 43.6549 27.1393 43.7919L26.9525 43.9725L24.0132 43.9912L21.074 44.0099L20.3454 43.7172L19.6106 43.4307L19.623 40.1925L19.6417 36.9481L19.9344 36.8485C20.0963 36.7924 20.2831 36.6928 20.3454 36.6243C20.4139 36.5558 20.8062 35.9767 21.2234 35.3415L21.9769 34.1832V33.0062C21.9769 31.6176 21.9956 31.5491 22.4502 31.5491C22.6059 31.5491 22.8176 31.5864 22.9359 31.6362ZM38.6474 33.6788C38.8342 33.8532 38.828 34.0711 38.6349 34.2579L38.4855 34.4136H35.9261C33.4538 34.4136 33.3666 34.4074 33.2483 34.2891C33.1798 34.2206 33.1238 34.0836 33.1238 33.9777C33.1238 33.8718 33.1798 33.7348 33.2483 33.6663C33.3666 33.548 33.4538 33.5418 35.9385 33.5418C38.4855 33.5418 38.5041 33.5418 38.6474 33.6788ZM41.4932 38.4053C41.6925 38.561 41.705 38.8038 41.5182 39.0031L41.3874 39.1463H37.377C33.4538 39.1463 33.3729 39.1463 33.2483 39.0218C33.1798 38.9533 33.1238 38.8163 33.1238 38.7104C33.1238 38.6046 33.1798 38.4676 33.2483 38.3991C33.3729 38.2745 33.4538 38.2745 37.3521 38.2745C41.2815 38.2745 41.3313 38.2745 41.4932 38.4053ZM38.6598 40.7405C38.828 40.9585 38.8217 41.1079 38.6349 41.2948L38.4855 41.4504H35.9261C33.4538 41.4504 33.3666 41.4442 33.2483 41.3259C33.0864 41.164 33.0926 40.9024 33.2608 40.7219L33.3915 40.5786H35.9634H38.5353L38.6598 40.7405ZM17.7424 42.1915C17.842 42.2911 17.9416 42.4406 17.9603 42.5278C18.0475 42.8578 17.6614 43.3186 17.3065 43.3186C16.939 43.3186 16.5654 42.864 16.6526 42.5278C16.7771 42.0358 17.3936 41.8428 17.7424 42.1915Z" fill="#14A800"/>
<path d="M28.6294 25.2162L28.0503 25.6708L27.851 25.4093C27.7389 25.266 27.577 25.129 27.4836 25.1104C27.1535 25.0232 26.8359 25.2847 26.8359 25.6334C26.8359 25.8016 27.5583 26.7481 27.7451 26.8166C27.8323 26.854 27.9568 26.8789 28.0191 26.8789C28.1499 26.8789 29.6382 25.7144 29.7939 25.4902C29.9122 25.3159 29.9122 25.073 29.7877 24.8986C29.7192 24.799 29.632 24.7616 29.4514 24.7616C29.2521 24.7616 29.1276 24.8301 28.6294 25.2162Z" fill="#14A800"/>
<path d="M29.1712 31.8047C29.1027 31.8482 28.8287 32.0662 28.5547 32.2904L28.0627 32.6952L27.8385 32.4398C27.5894 32.1596 27.4275 32.0849 27.1847 32.1472C27.0103 32.1907 26.8359 32.4523 26.8359 32.664C26.8359 32.8072 27.5334 33.76 27.7078 33.8534C27.9755 33.9967 28.1312 33.9219 28.9221 33.2867C29.7752 32.5955 29.8873 32.4772 29.8873 32.2281C29.8873 31.8856 29.4639 31.6365 29.1712 31.8047Z" fill="#14A800"/>
</g>
</svg>
