<svg width="60" height="60" viewBox="0 0 60 60" fill="none" xmlns="http://www.w3.org/2000/svg">
<rect width="60" height="60" rx="30" fill="#14A800" fill-opacity="0.12"/>
<path d="M10.9958 14.9877L10.75 15.2334V18.1741C10.75 21.1656 10.7669 21.3436 11.0805 21.5809C11.1822 21.6572 11.9449 21.6826 13.9788 21.6911H16.7415L17.7076 22.4538L18.6737 23.208L18.7246 22.6826C18.75 22.3944 18.8008 22.0978 18.8347 22.0216C18.9195 21.8267 19.2585 21.6911 19.6568 21.6911C19.9025 21.6911 20.0551 21.6317 20.1992 21.4792L20.411 21.2758V18.2419C20.4025 15.9877 20.3771 15.1741 20.3008 15.0724C20.0551 14.7504 19.9364 14.7419 15.5381 14.7419H11.2415L10.9958 14.9877ZM19.0551 16.0978C19.2754 16.3182 19.2754 16.708 19.0466 16.9114C18.8771 17.0639 18.6907 17.0724 15.5636 17.0724H12.2585L12.0975 16.869C11.8856 16.6148 11.8941 16.3097 12.1059 16.0978C12.2669 15.9368 12.3856 15.9283 15.5805 15.9283C18.7754 15.9283 18.8941 15.9368 19.0551 16.0978ZM19.0042 17.8012C19.2754 18.0131 19.3008 18.3944 19.0551 18.6402C18.8941 18.8012 18.7754 18.8097 15.6314 18.8097H12.3686L12.1992 18.5894C11.9703 18.2928 11.9788 18.0894 12.2331 17.8351L12.4364 17.6233H15.6059C18.6907 17.6233 18.7839 17.6317 19.0042 17.8012ZM19.0551 19.5724C19.3008 19.8182 19.2754 20.1995 19.0042 20.4114C18.7839 20.5809 18.6907 20.5894 15.6059 20.5894H12.4364L12.2331 20.3775C11.9788 20.1233 11.9703 19.9199 12.1992 19.6233L12.3686 19.4029H15.6314C18.7754 19.4029 18.8941 19.4114 19.0551 19.5724Z" fill="#14A800"/>
<path d="M21.5968 20.5639C21.5968 21.1825 21.5544 21.4791 21.4358 21.7334C21.2409 22.1741 20.6815 22.6741 20.2493 22.8012L19.9019 22.9029V23.5469C19.9019 24.013 19.8595 24.2503 19.7663 24.3944C19.5798 24.6571 19.1646 24.8266 18.8849 24.7419C18.7578 24.708 18.1392 24.2673 17.5205 23.7758C16.8934 23.2842 16.3595 22.8774 16.3256 22.8774C16.2832 22.8774 16.2578 26.7249 16.2578 31.4368V39.9961H31.0883H45.9188V30.3436V20.6995L45.7324 20.4198C45.6222 20.2673 45.4273 20.0554 45.3002 19.9622L45.0629 19.7842L33.3256 19.7588L21.5968 19.7419V20.5639ZM25.6392 21.2249C27.5968 21.6825 28.9188 23.1995 29.1815 25.2927C29.3426 26.6063 28.5968 28.5385 27.4358 29.7758L26.9358 30.3181L27.4104 30.513C28.529 30.9622 29.7748 31.9876 30.4951 33.0469C31.2832 34.208 31.6561 35.3944 31.7409 37.013C31.8002 38.1486 31.7409 38.3774 31.368 38.5469C31.0798 38.6825 18.3002 38.6825 18.0036 38.5469C17.6561 38.3859 17.5798 38.0639 17.6392 36.9622C17.7154 35.3944 18.0883 34.2164 18.8849 33.0469C19.6053 31.9876 20.851 30.9622 21.9697 30.5046L22.4443 30.3181L21.9188 29.7503C21.0205 28.7927 20.5036 27.7503 20.2578 26.4452C19.6815 23.3097 22.5714 20.5046 25.6392 21.2249ZM39.5798 21.352C40.7832 21.6402 41.868 22.2927 42.7663 23.2588C44.6476 25.2673 45.0544 28.1571 43.7917 30.5893C42.9273 32.2503 41.4443 33.4537 39.6476 33.9537C38.7832 34.1825 37.0798 34.1656 36.2578 33.9113C35.0798 33.5385 34.351 33.0978 33.4612 32.1995C32.7748 31.5215 32.5883 31.2758 32.2493 30.5893C31.7578 29.6063 31.6053 29.013 31.5375 27.9622C31.4104 25.869 32.3934 23.7588 34.0798 22.4961C35.69 21.2842 37.6222 20.8774 39.5798 21.352ZM42.5714 35.5469C42.69 35.6571 42.7832 35.8266 42.7832 35.9283C42.7832 36.03 42.69 36.1995 42.5714 36.3097L42.368 36.5215H38.0544C33.8171 36.5215 33.7324 36.5215 33.5121 36.3436C33.2409 36.1317 33.2239 35.8012 33.4782 35.53L33.6561 35.3351H38.0121H42.368L42.5714 35.5469ZM40.4866 37.6741C40.7154 37.9707 40.707 38.1741 40.4527 38.4283L40.2493 38.6402H38.0121C35.8765 38.6402 35.7578 38.6317 35.5459 38.4622C35.2748 38.2503 35.2578 37.9198 35.5121 37.6486C35.69 37.4537 35.6985 37.4537 38.0036 37.4537H40.3171L40.4866 37.6741Z" fill="#14A800"/>
<path d="M24.0039 22.3696C22.7073 22.6323 21.648 23.7509 21.4191 25.1323C21.2836 25.912 21.4615 26.8103 21.9361 27.7764C22.809 29.5475 24.3175 30.3187 25.6564 29.7001C27.0632 29.0391 28.2497 26.7086 27.9785 25.1323C27.648 23.217 25.8937 21.9967 24.0039 22.3696Z" fill="#14A800"/>
<path d="M23.0561 30.7763C23.1324 30.9966 23.8019 31.4203 24.2341 31.522C24.8103 31.6661 25.4544 31.522 25.9375 31.1576C26.4375 30.7763 26.4375 30.6407 25.9459 30.8695C25.3612 31.1407 24.0307 31.1322 23.4375 30.861C23.1747 30.7424 23.0392 30.7169 23.0561 30.7763Z" fill="#14A800"/>
<path d="M21.6841 31.9626C21.4299 32.1066 20.9129 32.5388 20.5316 32.9202C19.4807 33.9711 18.9553 35.166 18.8282 36.7507L18.7773 37.4541H24.6926H30.6079L30.557 36.7422C30.4468 35.1321 29.9214 33.988 28.8028 32.8778C28.396 32.4711 27.8706 32.0473 27.6079 31.9117L27.1333 31.6575L26.8875 31.8948C25.7265 32.988 23.8367 33.0473 22.6756 32.0304C22.4638 31.8439 22.2604 31.6914 22.218 31.6914C22.1841 31.6914 21.9384 31.8185 21.6841 31.9626Z" fill="#14A800"/>
<path d="M36.6809 22.5046C35.7403 22.7504 34.9945 23.191 34.2657 23.9283C32.986 25.2249 32.4691 26.9199 32.8165 28.6826C32.9521 29.369 33.3843 30.3775 33.6979 30.7588L33.8758 30.9707L34.1725 30.6741L34.4775 30.3775L34.2233 29.9877C33.8335 29.4029 33.6131 28.6826 33.5623 27.9199C33.486 26.5893 33.9267 25.4453 34.8843 24.4877C36.3674 23.0131 38.5708 22.7419 40.3335 23.8182L40.7572 24.0893L41.0538 23.8012C41.3165 23.547 41.325 23.5131 41.2064 23.3775C41.0114 23.1571 39.9182 22.6402 39.3504 22.4961C38.7148 22.3351 37.3081 22.3351 36.6809 22.5046Z" fill="#14A800"/>
<path d="M37.3582 24.4112C36.3667 24.6061 35.4938 25.301 35.0446 26.2501C34.7989 26.7671 34.7734 26.8857 34.7734 27.6654C34.7734 28.4196 34.7989 28.5722 35.0107 29.0298C35.2989 29.6569 35.9514 30.3179 36.5955 30.6485C37.0192 30.8688 37.1378 30.8857 37.9938 30.8857C38.8751 30.8857 38.9599 30.8688 39.4938 30.6061C40.1972 30.2671 40.8328 29.5976 41.0955 28.9112C41.2565 28.5298 41.2904 28.2586 41.2989 27.623C41.2989 26.8857 41.2734 26.7671 41.0277 26.2671C40.5446 25.2756 39.6717 24.5976 38.6378 24.4027C38.1124 24.3095 37.8921 24.3095 37.3582 24.4112Z" fill="#14A800"/>
<path d="M41.861 24.6063L41.5898 24.886L41.8441 25.3182C42.7 26.691 42.7339 28.3351 41.9458 29.7927L41.6153 30.4029L41.9119 30.6826L42.2 30.9707L42.361 30.7588C42.6492 30.386 43.0305 29.547 43.1831 28.9792C43.3526 28.3182 43.3695 27.0893 43.217 26.4368C43.0814 25.8775 42.522 24.6656 42.3017 24.4622C42.1492 24.3266 42.1237 24.3351 41.861 24.6063Z" fill="#14A800"/>
<path d="M34.9372 31.5303L34.6914 31.793L34.9033 31.9625C35.8948 32.7676 37.7592 33.1574 39.1575 32.8439C39.7931 32.6998 40.7846 32.2676 41.1575 31.971L41.3524 31.81L41.0643 31.5388L40.7762 31.2591L40.2338 31.5557C39.5219 31.9456 38.8439 32.1151 37.9965 32.1151C37.1914 32.1151 36.5897 31.9625 35.8524 31.5557C35.5643 31.3947 35.2931 31.2676 35.2592 31.2676C35.2168 31.2676 35.0812 31.3863 34.9372 31.5303Z" fill="#14A800"/>
<path d="M13.5118 41.3185C13.4864 41.3947 13.4609 41.6235 13.4609 41.8269C13.4609 42.2083 13.4779 42.2252 14.7067 43.4795L15.944 44.7422H31.0796H46.2152L47.1559 43.7846C48.783 42.132 48.8423 42.0388 48.6643 41.3693L48.6135 41.1829H31.0881C15.1898 41.1829 13.5626 41.1913 13.5118 41.3185Z" fill="#14A800"/>
</svg>
