<svg width="32" height="32" viewBox="0 0 32 32" fill="none" xmlns="http://www.w3.org/2000/svg">
<g filter="url(#filter0_b_75546_3353)">
<rect x="0.5" y="0.5" width="31" height="31" rx="15.5" stroke="#14A800"/>
<path d="M25.6894 9.88235C24.9647 10.2118 24.1835 10.4282 23.3741 10.5318C24.2024 10.0329 24.8424 9.24235 25.1435 8.29176C24.3624 8.76235 23.4965 9.09176 22.5835 9.28C21.84 8.47059 20.7953 8 19.6094 8C17.3976 8 15.5906 9.80706 15.5906 12.0376C15.5906 12.3576 15.6282 12.6682 15.6941 12.96C12.3435 12.7906 9.36 11.1812 7.37412 8.74353C7.02588 9.33647 6.82824 10.0329 6.82824 10.7671C6.82824 12.1694 7.53412 13.4118 8.62588 14.1176C7.95765 14.1176 7.33647 13.9294 6.79059 13.6471V13.6753C6.79059 15.6329 8.18353 17.2706 10.0282 17.6376C9.43598 17.7997 8.81421 17.8223 8.21177 17.7035C8.46739 18.5059 8.96803 19.2079 9.64331 19.711C10.3186 20.2141 11.1345 20.4929 11.9765 20.5082C10.5493 21.6381 8.78023 22.2488 6.96 22.24C6.64 22.24 6.32 22.2212 6 22.1835C7.78824 23.3318 9.91529 24 12.1929 24C19.6094 24 23.6847 17.8447 23.6847 12.5082C23.6847 12.3294 23.6847 12.16 23.6753 11.9812C24.4659 11.4165 25.1435 10.7012 25.6894 9.88235Z" fill="#14A800"/>
</g>
<defs>
<filter id="filter0_b_75546_3353" x="-50" y="-50" width="132" height="132" filterUnits="userSpaceOnUse" color-interpolation-filters="sRGB">
<feFlood flood-opacity="0" result="BackgroundImageFix"/>
<feGaussianBlur in="BackgroundImageFix" stdDeviation="25"/>
<feComposite in2="SourceAlpha" operator="in" result="effect1_backgroundBlur_75546_3353"/>
<feBlend mode="normal" in="SourceGraphic" in2="effect1_backgroundBlur_75546_3353" result="shape"/>
</filter>
</defs>
</svg>
